<?xml version="1.0" standalone="no"?>
<!DOCTYPE svg PUBLIC "-//W3C//DTD SVG 20010904//EN"
 "http://www.w3.org/TR/2001/REC-SVG-20010904/DTD/svg10.dtd">
<svg version="1.0" xmlns="http://www.w3.org/2000/svg"
 width="1202.000000pt" height="1280.000000pt" viewBox="0 0 1202.000000 1280.000000"
 preserveAspectRatio="xMidYMid meet">
<g transform="translate(0.000000,1280.000000) scale(0.100000,-0.100000)"
fill="#000000" stroke="none">
<path d="M4998 12794 c-3 -3 -61 -9 -129 -14 -190 -15 -247 -34 -364 -121 -35
-25 -58 -32 -149 -45 -132 -18 -239 -51 -373 -114 -85 -40 -116 -62 -192 -133
-128 -122 -144 -123 -321 -22 -159 91 -288 125 -472 125 -307 0 -569 -152
-754 -436 -94 -143 -133 -253 -141 -399 -5 -88 -2 -112 21 -195 39 -144 33
-193 -31 -236 -25 -17 -53 -22 -143 -28 -330 -20 -440 -175 -485 -686 -30
-342 -67 -441 -207 -562 -35 -30 -109 -94 -166 -142 -127 -110 -216 -219 -281
-347 -97 -189 -131 -357 -131 -639 0 -193 13 -296 59 -493 45 -187 46 -184
-43 -256 -110 -90 -172 -185 -233 -358 -27 -76 -28 -84 -28 -292 l0 -214 -38
-24 c-52 -33 -179 -207 -231 -317 -49 -102 -108 -278 -126 -376 -20 -104 -16
-225 10 -292 27 -72 98 -152 191 -214 38 -25 69 -50 69 -56 0 -5 -20 -36 -45
-68 -132 -172 -206 -341 -255 -587 -29 -144 36 -399 140 -553 43 -63 202 -228
367 -380 99 -92 103 -104 77 -261 l-18 -111 32 -91 c39 -110 39 -124 7 -224
-13 -43 -37 -139 -52 -213 -23 -114 -27 -159 -27 -290 1 -139 3 -164 28 -244
15 -49 46 -127 70 -175 57 -114 261 -429 330 -512 115 -135 248 -219 446 -279
161 -49 174 -68 214 -305 19 -113 32 -162 70 -250 138 -320 179 -368 418 -483
260 -126 341 -147 573 -146 150 1 170 3 315 38 85 21 189 40 230 43 66 4 80 2
116 -19 44 -25 301 -287 374 -382 64 -84 144 -139 335 -232 213 -104 312 -137
495 -164 157 -24 244 -23 382 4 142 27 176 42 260 123 l78 74 45 -7 c52 -7 93
7 196 67 143 83 239 198 285 343 35 109 43 274 20 404 -9 50 -16 107 -16 125
0 24 -8 41 -30 62 -26 25 -30 35 -30 86 0 74 49 322 104 524 72 263 71 258 71
435 0 204 -9 237 -104 384 -105 162 -107 203 -12 390 72 143 87 188 102 317
13 118 -3 553 -27 687 -24 140 -80 357 -129 502 -25 74 -46 150 -47 167 -1 22
10 51 32 85 95 150 95 151 95 288 -1 113 -4 134 -33 220 -38 115 -107 239
-173 314 -27 30 -49 58 -49 63 0 5 25 38 56 74 67 77 118 159 147 237 21 54
22 75 25 452 2 217 -1 494 -7 615 -14 296 -35 381 -174 715 -36 85 -88 202
-116 259 -28 57 -51 112 -51 122 0 12 16 27 40 39 120 61 217 214 283 448 21
73 22 96 21 432 0 354 0 355 -27 450 -15 52 -40 155 -57 228 -29 129 -30 134
-13 163 10 16 34 41 55 54 45 30 53 55 45 142 -9 94 -44 162 -122 236 l-66 63
59 46 c66 51 173 186 211 268 34 72 41 201 16 286 -26 91 -52 139 -242 444
-43 69 -41 111 10 225 46 104 67 217 67 369 0 224 -47 373 -151 477 -46 46
-83 70 -195 124 -77 37 -158 80 -182 96 -24 16 -60 36 -79 44 -35 15 -114 21
-125 9z m125 -138 c295 -105 401 -202 462 -421 26 -94 32 -324 10 -421 -20
-89 -51 -175 -68 -186 -6 -3 -25 5 -41 19 -17 13 -85 65 -151 115 -66 50 -146
113 -178 141 -75 64 -124 90 -148 76 -24 -13 -24 -40 1 -88 24 -47 73 -89 154
-132 180 -94 300 -207 426 -400 196 -300 226 -428 138 -603 -42 -83 -112 -180
-153 -212 -73 -55 -127 -51 -293 25 -59 27 -154 64 -212 82 -101 33 -111 34
-255 33 -190 -1 -268 -17 -706 -144 -71 -21 -119 -52 -119 -77 0 -14 12 -15
88 -10 72 4 122 17 282 71 210 70 283 86 401 86 164 0 405 -64 604 -160 117
-57 188 -109 229 -168 39 -55 40 -116 2 -232 -26 -78 -28 -94 -23 -192 5 -93
11 -124 51 -240 26 -73 53 -164 61 -203 22 -99 31 -453 16 -582 -29 -246 -115
-421 -254 -517 l-57 -39 -54 57 c-54 56 -117 93 -137 80 -24 -15 28 -126 127
-272 79 -115 123 -202 210 -410 146 -349 173 -473 181 -837 6 -298 -9 -677
-31 -760 -24 -90 -98 -232 -160 -307 -127 -153 -311 -270 -628 -397 -200 -80
-298 -140 -298 -182 0 -11 11 -20 30 -24 24 -5 44 1 94 29 36 20 129 57 208
82 103 33 195 73 329 142 144 74 191 94 210 89 107 -27 229 -261 229 -437 -1
-77 -56 -255 -79 -255 -8 0 -35 29 -61 65 -49 69 -94 100 -147 100 -47 0 -83
-17 -83 -38 0 -10 40 -58 90 -106 103 -100 117 -121 198 -306 162 -367 230
-750 192 -1085 -23 -201 -68 -360 -182 -645 -126 -313 -154 -414 -124 -439 39
-32 97 19 131 114 29 80 33 82 80 35 24 -23 56 -67 71 -98 26 -52 29 -66 29
-162 0 -96 -3 -110 -29 -165 -68 -138 -247 -259 -449 -302 -104 -22 -371 -13
-487 17 -179 46 -315 134 -401 262 -59 86 -80 142 -95 252 -18 139 -48 166
-191 166 -183 1 -275 28 -332 97 -60 73 -75 131 -76 288 0 168 15 229 80 325
58 86 75 129 64 158 -16 41 -46 25 -170 -90 -142 -133 -210 -185 -301 -233
-289 -153 -643 -180 -1041 -80 -203 52 -366 127 -459 214 -143 132 -308 453
-390 759 -28 103 -31 133 -32 252 0 129 1 139 32 215 18 44 32 90 32 101 0 30
-34 49 -141 79 -120 33 -258 100 -333 162 -131 106 -224 310 -185 405 7 18 28
57 47 86 57 91 82 198 62 271 -13 48 -33 57 -79 33 -27 -14 -51 -43 -96 -118
-96 -157 -151 -174 -322 -100 -103 46 -120 46 -139 1 -33 -79 -5 -163 64 -192
22 -9 91 -19 170 -25 74 -4 142 -13 153 -18 27 -15 36 -37 57 -133 12 -54 31
-106 53 -143 48 -80 150 -181 242 -238 77 -48 204 -96 255 -96 54 0 58 -11 37
-92 -29 -106 -27 -292 4 -408 32 -121 82 -250 172 -444 131 -282 221 -413 354
-514 177 -133 489 -202 920 -204 167 -1 216 2 295 19 131 28 240 72 366 148
59 36 111 65 116 65 4 0 8 -64 8 -142 0 -87 6 -170 15 -213 32 -152 126 -292
225 -334 58 -25 121 -29 237 -17 l82 8 6 -28 c32 -156 71 -244 156 -350 97
-122 237 -213 394 -256 71 -19 107 -21 310 -22 254 -1 287 3 512 70 67 20 129
34 138 31 17 -7 13 -39 -12 -120 -30 -97 -169 -220 -393 -347 -160 -91 -210
-131 -210 -168 0 -24 2 -25 50 -19 69 8 192 68 339 166 68 45 130 80 137 77 8
-3 14 -18 14 -34 0 -16 14 -98 31 -183 36 -176 48 -353 30 -441 -19 -91 -72
-188 -146 -266 -80 -86 -209 -186 -228 -179 -9 3 -16 28 -19 71 -5 61 -27 116
-47 116 -4 0 -25 -39 -46 -86 -61 -137 -148 -206 -320 -256 -66 -19 -104 -23
-220 -23 -161 0 -245 15 -430 77 -216 72 -292 122 -543 361 -89 85 -194 176
-232 203 -39 26 -70 52 -70 58 0 6 39 33 88 60 48 27 130 79 182 116 52 37
131 89 175 115 44 26 99 62 122 81 23 19 46 34 51 34 5 0 45 -35 88 -77 130
-128 262 -194 404 -201 70 -3 88 -1 99 12 21 25 -27 60 -177 132 -293 139
-380 248 -422 524 -28 188 -72 270 -107 200 -19 -38 -16 -156 7 -235 37 -127
41 -155 30 -190 -12 -38 -130 -155 -155 -155 -26 0 -123 54 -200 113 -128 96
-185 205 -185 351 0 91 36 196 112 328 89 152 96 190 42 204 -36 9 -76 -12
-159 -87 -141 -126 -336 -178 -542 -145 -51 8 -53 8 -53 -14 0 -30 52 -94 94
-114 41 -19 218 -22 277 -5 43 13 69 1 69 -31 0 -10 9 -38 20 -62 11 -25 33
-104 49 -177 35 -152 61 -206 144 -297 55 -60 145 -124 174 -124 28 0 62 -20
57 -33 -9 -24 -137 -115 -234 -166 -115 -60 -238 -104 -373 -133 -137 -30
-455 -32 -589 -5 -203 41 -370 115 -473 209 -146 134 -223 285 -296 580 -28
110 -48 206 -46 213 4 8 52 14 154 18 81 4 190 15 240 25 51 11 95 16 98 14 3
-3 5 -28 5 -56 0 -72 24 -175 53 -233 57 -112 183 -193 332 -213 104 -14 293
-14 345 0 61 17 93 55 72 86 -17 26 -56 34 -174 34 -235 1 -345 34 -432 130
-64 73 -91 132 -91 205 0 80 18 103 180 225 162 122 259 220 275 278 12 46 8
62 -17 62 -23 0 -67 -34 -178 -136 -123 -114 -178 -156 -275 -212 -148 -84
-323 -119 -554 -109 -273 11 -495 104 -667 277 -117 118 -275 380 -342 567
-74 206 -77 449 -6 661 12 35 27 66 34 68 7 3 49 -6 92 -20 227 -71 466 -83
519 -25 30 33 5 42 -142 51 -75 4 -155 13 -178 19 -110 29 -214 121 -269 236
-39 83 -47 180 -24 299 24 126 28 161 17 188 -7 19 -39 39 -136 86 -120 58
-134 68 -223 158 -150 152 -236 328 -261 540 -24 198 41 438 173 639 91 139
91 139 362 39 53 -19 89 -26 151 -26 147 0 209 -51 444 -365 148 -199 209
-268 292 -330 122 -91 256 -135 417 -135 90 0 141 11 141 30 0 15 -76 60 -139
81 -31 11 -109 33 -175 50 -236 60 -309 117 -493 392 -112 167 -127 198 -138
291 -13 97 -58 112 -239 80 -81 -14 -96 -14 -160 1 -80 17 -260 101 -365 169
-92 59 -179 148 -221 227 -34 63 -35 67 -35 179 1 103 4 125 33 210 59 169
151 318 241 386 68 52 78 48 168 -63 67 -84 88 -103 146 -133 38 -19 72 -42
77 -51 5 -8 16 -60 26 -115 21 -127 26 -137 125 -285 134 -200 200 -258 295
-259 105 0 73 82 -72 186 -91 65 -140 124 -189 227 -113 237 -99 468 46 765
44 88 66 118 155 213 57 60 104 116 104 123 0 40 -110 20 -169 -30 -67 -58
-166 -205 -218 -327 -15 -34 -43 -118 -63 -187 -47 -156 -53 -159 -144 -68
-144 144 -202 393 -146 627 32 134 71 204 165 299 107 107 124 109 192 22 78
-101 167 -145 196 -98 9 13 -2 30 -61 92 -196 207 -317 668 -273 1045 36 303
124 473 375 721 240 237 279 254 422 182 101 -51 136 -59 159 -36 22 22 16 52
-29 148 -28 61 -40 77 -70 91 -20 10 -47 31 -61 47 l-25 29 6 202 c6 238 16
317 54 414 66 171 174 257 382 303 107 24 186 26 194 5 3 -8 -11 -62 -31 -120
-33 -97 -36 -116 -42 -258 -7 -172 0 -200 45 -195 31 4 34 15 52 182 11 109
50 280 69 298 4 5 30 -2 58 -13 92 -39 116 -19 162 141 16 56 38 111 48 122
31 35 189 107 280 128 79 19 123 40 123 61 0 4 -8 15 -17 24 -37 38 -216 -18
-472 -146 -97 -48 -180 -84 -184 -80 -5 5 -25 60 -44 122 -26 85 -36 140 -40
214 -5 93 -3 107 24 186 76 220 286 477 459 559 161 77 368 81 574 9 149 -51
340 -159 340 -191 0 -10 -16 -49 -35 -87 -41 -83 -58 -91 -191 -91 -99 0 -147
-13 -142 -39 6 -32 58 -46 176 -46 62 -1 116 -5 121 -11 26 -29 34 -91 37
-318 3 -196 7 -244 20 -263 22 -35 62 -27 91 16 30 45 30 127 1 304 -30 187
-30 372 0 448 33 84 114 192 190 255 109 90 330 188 496 219 47 9 47 -4 2 -93
-44 -89 -63 -150 -81 -258 -15 -96 -28 -116 -104 -156 -50 -28 -76 -94 -75
-198 2 -153 67 -258 181 -291 61 -18 178 -16 318 5 142 22 147 23 143 49 -3
20 -9 22 -68 21 -36 -1 -92 -5 -125 -9 -50 -6 -70 -3 -119 15 -157 60 -220
214 -119 294 33 25 41 50 59 178 18 128 44 218 89 308 77 153 180 254 304 298
102 36 199 27 364 -32z"/>
<path d="M3546 11074 c-87 -32 -219 -163 -271 -269 -36 -73 -46 -142 -44 -310
l2 -150 -84 2 c-79 1 -166 16 -266 45 -27 8 -46 9 -52 3 -13 -13 3 -82 26
-114 45 -60 158 -88 284 -71 104 14 134 4 215 -71 100 -93 184 -126 347 -136
53 -3 104 -11 111 -17 12 -9 10 -25 -9 -101 -24 -90 -32 -199 -17 -209 5 -3
22 3 39 13 34 21 61 73 92 178 17 55 37 93 85 156 96 126 125 190 90 204 -23
8 -51 -8 -124 -72 -96 -85 -112 -91 -190 -71 -79 20 -229 93 -295 143 -98 75
-143 184 -131 318 13 157 57 260 158 371 72 79 128 151 128 166 0 12 -50 8
-94 -8z"/>
<path d="M4881 10239 c-60 -36 -138 -125 -175 -200 -42 -83 -43 -97 -15 -133
24 -31 26 -30 -94 -45 -197 -26 -339 -93 -468 -221 -98 -98 -143 -163 -264
-385 -125 -228 -186 -319 -279 -411 -148 -147 -259 -204 -413 -212 -183 -9
-318 43 -473 182 -52 47 -99 85 -105 83 -23 -8 -55 -83 -55 -129 0 -41 5 -54
36 -88 85 -94 300 -152 652 -176 115 -7 123 -13 97 -65 -26 -48 -30 -134 -11
-209 21 -85 87 -218 140 -283 63 -78 63 -73 11 -128 -69 -74 -108 -164 -113
-265 -10 -194 95 -362 283 -453 121 -59 196 -75 360 -76 l140 -1 7 -129 c4
-72 12 -148 17 -170 13 -50 5 -59 -65 -74 -79 -18 -218 -90 -295 -154 -154
-128 -269 -331 -286 -504 -9 -93 -5 -91 -130 -60 -59 15 -136 27 -169 27 -121
0 -297 -46 -506 -134 -48 -20 -93 -36 -102 -36 -9 0 -21 22 -32 56 -52 168
-202 299 -399 350 -89 23 -283 26 -309 5 -16 -14 -16 -15 0 -24 9 -5 77 -20
151 -32 206 -36 287 -83 373 -216 20 -31 51 -97 69 -147 60 -169 107 -181 245
-65 71 60 259 132 398 154 81 13 250 -1 336 -26 72 -22 82 -40 82 -155 0 -88
17 -185 60 -342 26 -92 189 -152 183 -66 -1 13 -26 69 -57 124 -79 140 -100
233 -101 429 0 132 3 158 24 220 72 212 212 385 382 471 224 112 386 67 529
-147 104 -156 129 -162 275 -64 108 72 143 85 231 85 92 0 145 -31 258 -154
99 -106 150 -144 181 -132 26 10 15 111 -21 183 -90 185 -294 236 -612 151
-182 -48 -165 -50 -203 22 -73 137 -186 209 -329 210 -25 0 -50 4 -56 8 -7 4
-14 56 -19 123 -13 212 18 293 172 446 105 104 121 133 84 153 -28 14 -117
-21 -179 -70 -28 -21 -73 -75 -105 -124 -41 -61 -64 -87 -83 -92 -45 -11 -215
4 -292 26 -192 54 -293 142 -337 293 -23 80 -14 120 57 257 72 138 72 151 -2
257 -102 147 -135 259 -120 408 18 174 44 226 197 387 145 154 178 202 278
399 114 223 189 336 289 434 119 117 225 167 428 201 82 14 140 16 288 11 102
-3 191 -3 198 0 19 7 14 38 -9 59 -18 16 -40 19 -160 22 -78 2 -139 8 -139 13
0 30 45 171 67 209 52 91 64 115 61 134 -4 28 -18 29 -57 5z"/>
<path d="M2517 10143 c-52 -118 -77 -263 -77 -455 0 -90 5 -156 17 -205 20
-87 13 -119 -45 -209 -43 -65 -248 -297 -268 -302 -18 -4 -121 183 -158 286
-29 82 -31 95 -31 232 0 233 36 335 163 464 105 107 93 131 -33 68 -64 -32
-185 -153 -214 -214 -24 -50 -40 -173 -41 -300 l0 -68 -53 0 c-123 0 -412 -56
-487 -95 -65 -34 -85 -79 -54 -123 23 -34 60 -27 154 28 119 71 169 84 299 78
58 -3 114 -9 123 -13 11 -4 21 -27 28 -63 14 -67 113 -248 178 -324 32 -38 41
-56 36 -72 -15 -53 -50 -107 -114 -179 -81 -90 -132 -184 -186 -343 -20 -60
-41 -113 -45 -118 -5 -5 -44 25 -92 71 -145 139 -267 190 -432 180 -49 -3
-102 -10 -117 -16 -65 -25 14 -66 144 -75 116 -8 222 -54 283 -120 11 -13 55
-50 97 -85 82 -66 94 -86 84 -149 -25 -165 -29 -249 -18 -381 20 -228 62 -375
143 -501 21 -34 37 -65 34 -69 -2 -5 -26 -14 -52 -21 -138 -34 -297 -160 -351
-277 -54 -117 -59 -193 -13 -193 33 0 76 46 161 170 86 127 118 156 232 210
99 47 118 41 193 -64 125 -176 360 -341 559 -393 72 -19 116 -9 116 25 0 28
-24 45 -161 109 -69 33 -155 79 -190 103 -334 225 -543 562 -578 931 -36 386
141 876 442 1220 99 113 207 199 327 259 54 27 108 62 120 77 33 42 23 99 -38
229 -86 182 -88 229 -26 483 37 150 39 192 9 237 -24 37 -40 29 -68 -33z"/>
<path d="M4815 9188 c-43 -16 -88 -46 -184 -122 -104 -83 -189 -131 -267 -151
-54 -14 -69 -14 -149 0 -48 9 -91 13 -94 9 -3 -3 -6 -25 -6 -48 0 -92 66 -135
208 -136 103 0 143 -15 182 -66 70 -92 119 -265 118 -419 0 -99 -3 -114 -74
-377 -11 -44 -42 -63 -121 -78 -49 -10 -88 -33 -88 -52 0 -13 125 -10 307 8
156 16 170 15 222 -1 80 -24 177 -84 276 -170 87 -76 126 -96 153 -78 25 15
24 27 -9 76 -37 57 -174 170 -246 203 -72 34 -172 54 -278 54 -121 0 -125 4
-93 77 58 128 73 199 73 338 0 191 -28 279 -135 430 -67 94 -66 109 13 194 34
38 83 93 109 124 28 32 78 74 119 99 81 49 103 73 79 88 -19 13 -77 11 -115
-2z"/>
<path d="M4144 5168 c-74 -50 -93 -97 -101 -244 -7 -142 9 -219 62 -304 31
-50 33 -56 18 -67 -44 -34 -284 -5 -474 57 -142 47 -203 84 -299 181 -131 132
-154 140 -148 44 5 -82 32 -118 149 -198 220 -153 363 -189 759 -191 l185 -1
80 39 c117 57 147 55 315 -21 149 -66 208 -88 288 -103 56 -10 125 -1 146 20
22 22 -34 46 -246 105 -46 12 -73 29 -130 81 -101 91 -140 101 -310 84 -114
-12 -129 -12 -152 3 -62 41 -107 147 -107 251 0 33 12 92 30 150 17 53 31 107
31 121 0 36 -36 33 -96 -7z"/>
<path d="M2441 4965 c-57 -65 -80 -128 -121 -330 -16 -77 -36 -171 -46 -210
-24 -99 -24 -255 0 -323 27 -78 110 -164 200 -206 106 -50 163 -61 321 -61
133 0 143 2 202 29 34 15 70 37 79 47 24 27 41 24 90 -16 105 -86 323 -176
527 -217 97 -20 142 -23 337 -23 195 0 241 4 345 24 66 13 129 24 140 25 19 1
19 -6 20 -159 0 -147 2 -164 23 -206 51 -103 143 -157 282 -166 81 -4 122 8
128 40 6 28 -21 50 -145 124 -125 74 -166 112 -182 170 -14 49 -13 176 2 232
12 43 16 47 133 116 194 116 304 208 304 255 0 26 -43 54 -70 45 -12 -4 -61
-44 -108 -89 -128 -121 -215 -175 -380 -235 -165 -61 -251 -75 -447 -75 -148
0 -199 4 -286 22 -234 49 -392 121 -520 239 -43 40 -89 75 -102 78 -16 4 -41
-5 -81 -29 -91 -55 -168 -77 -285 -83 -160 -9 -249 18 -337 99 -62 57 -96 132
-102 224 -6 96 8 164 74 360 58 173 78 274 61 311 -14 30 -20 29 -56 -12z"/>
<path d="M6900 12788 c-14 -6 -47 -26 -75 -44 -27 -17 -112 -62 -189 -99 -112
-54 -149 -78 -195 -124 -104 -104 -151 -253 -151 -477 0 -152 21 -265 67 -369
51 -114 53 -156 10 -225 -190 -305 -216 -353 -242 -444 -25 -85 -18 -214 16
-286 38 -81 144 -217 211 -268 l59 -46 -66 -62 c-77 -74 -113 -143 -122 -237
-8 -88 0 -112 46 -143 22 -14 46 -40 55 -58 14 -30 13 -41 -14 -157 -15 -68
-41 -169 -56 -224 l-28 -100 0 -355 c-1 -336 0 -359 21 -432 66 -234 163 -387
283 -448 24 -12 40 -27 40 -39 0 -10 -23 -65 -51 -122 -56 -114 -166 -373
-205 -484 -14 -38 -36 -115 -50 -170 -33 -137 -46 -417 -42 -930 3 -382 4
-403 25 -457 28 -76 79 -159 147 -238 31 -36 56 -69 56 -73 0 -5 -22 -33 -49
-63 -66 -75 -135 -199 -173 -314 -29 -86 -32 -107 -33 -220 0 -137 0 -138 95
-288 22 -34 33 -63 32 -85 -1 -17 -22 -93 -47 -167 -49 -146 -105 -362 -129
-503 -20 -111 -40 -534 -31 -642 12 -144 31 -212 101 -351 100 -199 99 -236
-7 -400 -95 -147 -104 -180 -104 -384 0 -177 -1 -172 71 -435 55 -202 104
-450 104 -524 0 -51 -4 -61 -30 -86 -22 -21 -30 -38 -30 -62 0 -18 -7 -75 -16
-125 -23 -132 -15 -296 20 -404 47 -145 142 -260 285 -343 103 -60 144 -74
196 -67 l45 7 78 -74 c84 -81 118 -96 260 -123 138 -27 225 -28 382 -4 183 27
282 60 495 164 197 96 272 149 345 243 90 118 344 369 386 383 53 18 146 8
325 -36 144 -35 164 -37 314 -38 231 -1 311 20 573 146 239 115 277 159 417
483 39 89 52 136 71 250 40 237 53 256 214 305 198 60 327 141 441 274 73 87
274 396 335 517 24 49 56 128 71 176 24 79 26 104 27 243 0 131 -4 176 -27
290 -15 74 -39 170 -52 213 -32 100 -32 114 7 223 l32 91 -18 111 c-26 157
-22 170 77 262 165 152 324 317 367 380 57 84 98 182 122 294 37 169 36 199
-13 397 -34 140 -103 278 -213 432 -31 43 -56 82 -56 87 0 5 31 29 69 54 93
62 164 142 191 214 26 67 30 188 10 292 -18 98 -77 274 -126 376 -52 110 -179
284 -231 317 l-38 24 0 214 c0 209 -1 216 -28 294 -62 174 -131 275 -259 378
-59 47 -60 53 -13 253 45 195 55 284 55 484 0 267 -33 429 -125 615 -68 139
-154 246 -287 361 -57 48 -131 112 -166 142 -140 121 -177 220 -207 562 -25
283 -62 424 -140 531 -75 101 -172 145 -345 155 -90 6 -118 11 -143 28 -64 43
-70 93 -32 231 55 198 16 392 -119 600 -185 283 -447 435 -754 435 -184 0
-313 -34 -472 -125 -177 -101 -193 -100 -321 22 -76 71 -107 93 -192 133 -134
63 -241 96 -373 114 -91 13 -114 20 -149 45 -133 99 -165 107 -535 136 -31 3
-66 0 -80 -7z m353 -98 c203 -63 358 -297 401 -606 18 -130 26 -155 59 -180
33 -26 47 -56 47 -98 0 -74 -46 -137 -135 -184 -44 -24 -60 -26 -130 -24 -224
8 -210 9 -213 -15 -4 -26 1 -27 143 -49 140 -21 257 -23 318 -5 114 33 179
138 181 291 1 104 -25 170 -75 198 -76 40 -89 60 -104 156 -18 108 -37 169
-81 258 -45 89 -45 102 2 93 169 -31 389 -129 499 -222 82 -69 167 -188 192
-271 24 -78 22 -248 -5 -425 -29 -186 -29 -264 1 -308 29 -43 69 -51 90 -17
12 18 16 76 20 263 5 227 12 291 38 319 5 6 59 10 121 11 118 0 170 14 176 46
5 26 -43 39 -142 39 -133 0 -150 8 -191 91 -19 38 -35 77 -35 87 0 34 197 143
353 195 114 39 196 50 316 45 183 -8 300 -63 441 -207 128 -131 242 -317 276
-451 24 -95 14 -215 -29 -359 -20 -62 -39 -117 -44 -122 -5 -5 -86 31 -183 80
-239 120 -419 178 -469 152 -52 -28 -12 -64 102 -91 91 -21 249 -93 280 -128
10 -11 32 -66 48 -122 46 -160 70 -180 162 -141 28 11 54 18 58 13 19 -18 60
-200 73 -325 8 -75 18 -142 21 -147 3 -6 17 -10 30 -10 43 0 49 29 42 198 -6
142 -10 162 -43 259 -20 57 -33 110 -30 118 13 35 236 0 352 -56 140 -66 234
-208 262 -394 6 -38 13 -162 16 -274 l6 -204 -41 -39 c-22 -21 -46 -38 -53
-38 -21 0 -41 -30 -75 -112 -36 -88 -37 -100 -15 -123 22 -21 58 -13 158 37
143 72 183 55 423 -183 205 -203 291 -339 343 -544 64 -251 48 -583 -41 -850
-56 -166 -122 -287 -201 -371 -59 -62 -70 -79 -61 -92 29 -47 118 -3 196 98
68 87 85 85 192 -22 94 -95 133 -165 165 -299 56 -234 -2 -483 -146 -627 -91
-91 -97 -88 -143 69 -84 286 -245 531 -367 557 -52 11 -84 6 -84 -14 0 -8 42
-58 93 -112 107 -112 145 -168 198 -292 64 -149 84 -236 84 -380 0 -104 -4
-138 -23 -200 -52 -162 -114 -254 -237 -345 -86 -63 -121 -100 -130 -133 -9
-35 11 -52 59 -52 95 1 161 59 295 259 99 148 104 158 125 285 10 55 21 107
26 115 5 9 39 32 77 51 58 30 79 49 146 133 90 111 100 115 168 63 90 -68 182
-217 241 -386 29 -85 32 -107 33 -210 0 -112 -1 -116 -35 -179 -42 -79 -129
-168 -221 -227 -105 -68 -285 -152 -365 -169 -64 -15 -79 -15 -160 -1 -181 32
-226 17 -239 -80 -11 -93 -26 -124 -138 -291 -183 -272 -259 -333 -492 -392
-66 -17 -145 -39 -176 -50 -63 -21 -139 -66 -139 -81 0 -23 58 -32 170 -27
274 11 416 107 677 457 153 205 238 300 301 337 39 23 62 28 151 34 87 5 121
12 186 39 110 45 182 63 222 55 29 -5 42 -20 100 -108 132 -201 196 -436 173
-639 -24 -209 -110 -388 -261 -540 -89 -90 -103 -100 -223 -158 -97 -47 -129
-67 -137 -86 -6 -18 -4 -56 8 -127 10 -56 18 -145 18 -197 0 -86 -3 -101 -32
-163 -55 -115 -159 -207 -269 -236 -22 -6 -104 -15 -183 -20 -78 -4 -145 -11
-148 -15 -11 -11 11 -40 43 -56 65 -33 307 -10 486 46 44 14 86 23 93 20 7 -2
22 -33 34 -68 70 -212 68 -454 -6 -661 -64 -180 -228 -451 -342 -567 -172
-173 -394 -266 -667 -277 -231 -10 -406 25 -554 109 -97 56 -152 98 -275 212
-111 102 -155 136 -178 136 -25 0 -29 -16 -17 -62 16 -58 113 -156 275 -278
162 -122 180 -145 180 -225 0 -152 -145 -296 -325 -325 -36 -5 -123 -10 -193
-10 -123 0 -162 -7 -179 -34 -21 -31 11 -69 72 -86 52 -14 241 -14 345 0 149
20 275 101 332 213 29 58 53 161 53 233 0 28 2 53 5 56 3 2 47 -3 98 -14 50
-10 159 -21 240 -25 102 -4 150 -10 154 -18 2 -7 -18 -103 -46 -213 -109 -443
-267 -637 -604 -746 -153 -50 -236 -61 -452 -60 -222 0 -321 15 -492 75 -155
54 -399 198 -417 246 -5 13 29 33 57 33 29 0 119 64 174 124 83 91 109 145
144 297 16 73 38 152 49 177 11 24 20 52 20 62 0 32 27 45 64 32 50 -18 241
-15 282 4 42 20 94 84 94 114 0 22 -2 22 -52 14 -86 -14 -218 -9 -288 9 -104
28 -179 69 -268 145 -88 77 -119 91 -159 73 -22 -10 -25 -16 -20 -45 3 -19 35
-85 71 -147 81 -143 116 -243 116 -337 0 -144 -58 -254 -185 -349 -77 -59
-174 -113 -200 -113 -25 0 -143 117 -155 155 -11 35 -7 63 30 190 23 79 26
197 7 235 -35 70 -79 -12 -107 -200 -42 -276 -129 -385 -422 -524 -150 -72
-198 -107 -177 -132 11 -13 29 -15 99 -12 142 7 272 72 404 201 43 42 83 77
89 77 5 0 24 -13 42 -29 18 -15 72 -52 121 -81 49 -29 132 -83 184 -120 52
-37 134 -89 182 -116 49 -27 88 -54 88 -60 0 -6 -31 -32 -70 -58 -38 -27 -143
-118 -232 -203 -251 -239 -327 -289 -543 -361 -185 -62 -269 -77 -430 -77
-116 0 -154 4 -220 23 -173 50 -258 118 -320 256 -21 47 -42 86 -46 86 -20 0
-42 -55 -47 -116 -3 -43 -10 -68 -19 -71 -19 -7 -148 93 -228 179 -74 78 -127
175 -146 267 -18 88 -6 273 30 444 17 81 31 161 31 178 0 16 6 32 14 35 7 3
69 -32 137 -77 147 -98 270 -158 339 -166 48 -6 50 -5 50 19 0 37 -50 77 -210
168 -224 127 -363 250 -393 347 -25 81 -29 113 -12 120 9 3 71 -11 138 -31
225 -67 258 -71 512 -70 203 1 239 3 310 22 157 43 297 134 394 256 85 106
124 194 156 350 l6 28 82 -8 c116 -12 179 -8 237 17 99 42 193 182 225 334 9
43 15 126 15 213 0 78 4 142 8 142 5 0 57 -29 116 -65 123 -74 231 -118 360
-147 184 -43 643 -21 890 41 273 69 419 175 559 408 99 166 252 520 298 693
31 116 33 302 4 408 -21 81 -17 92 38 92 49 0 179 50 257 98 89 55 192 157
239 236 22 37 41 89 53 143 21 96 30 118 57 133 11 5 79 14 153 18 79 6 148
16 170 25 69 29 97 113 64 192 -19 45 -41 45 -142 -1 -165 -75 -223 -57 -319
100 -61 102 -110 145 -148 130 -25 -9 -40 -68 -32 -127 10 -77 23 -113 77
-207 45 -77 49 -90 45 -135 -10 -113 -91 -256 -193 -338 -75 -62 -213 -129
-333 -162 -107 -30 -141 -49 -141 -79 0 -11 14 -57 32 -101 30 -76 32 -87 31
-215 0 -120 -3 -148 -31 -252 -82 -306 -247 -627 -389 -759 -93 -85 -250 -160
-443 -209 -413 -105 -764 -81 -1058 75 -91 48 -159 100 -301 233 -124 115
-154 131 -170 90 -11 -29 7 -73 64 -158 63 -92 80 -163 80 -330 -1 -151 -16
-211 -76 -283 -57 -69 -148 -96 -327 -97 -142 0 -179 -28 -193 -147 -13 -111
-36 -176 -89 -257 -92 -140 -224 -228 -415 -277 -78 -20 -115 -23 -280 -24
-172 0 -197 2 -265 23 -216 68 -375 205 -410 353 -19 80 -9 193 24 260 37 74
103 144 122 128 8 -6 14 -18 14 -25 0 -7 12 -38 26 -69 39 -82 93 -117 124
-80 23 28 -8 137 -120 415 -145 361 -186 524 -197 790 -14 347 63 679 246
1061 46 97 59 115 146 200 52 51 95 101 95 111 0 21 -37 38 -83 38 -53 0 -98
-31 -147 -100 -26 -36 -53 -65 -61 -65 -23 0 -78 178 -79 255 0 134 73 315
157 389 74 66 73 66 282 -41 134 -69 226 -109 329 -142 79 -25 172 -62 208
-82 50 -28 70 -34 94 -29 16 4 30 11 30 16 0 47 -94 109 -272 179 -337 134
-524 251 -654 408 -62 75 -136 217 -160 307 -22 84 -37 446 -31 750 8 374 33
495 181 847 87 208 131 295 210 410 99 146 151 257 127 272 -20 13 -83 -24
-137 -80 l-55 -57 -57 40 c-114 80 -198 225 -239 413 -15 70 -18 129 -18 335
1 291 7 332 76 539 44 131 51 163 56 255 5 97 3 113 -23 191 -38 116 -37 177
2 232 41 59 112 111 229 167 191 93 389 149 555 158 144 8 222 -7 450 -83 160
-54 210 -67 282 -71 76 -5 88 -4 88 10 0 25 -48 56 -119 77 -438 127 -516 143
-706 144 -144 1 -154 0 -255 -33 -58 -18 -153 -55 -212 -82 -166 -76 -220 -80
-293 -25 -41 32 -111 129 -153 212 -88 175 -58 303 138 603 126 193 246 306
426 400 82 43 130 85 155 133 27 53 22 82 -14 86 -32 4 -59 -12 -137 -78 -30
-26 -109 -88 -175 -138 -66 -50 -134 -102 -151 -115 -16 -14 -35 -22 -41 -19
-17 11 -48 97 -68 186 -22 97 -16 327 10 421 58 207 166 313 416 405 193 72
290 84 402 50z"/>
<path d="M8380 11083 c0 -16 53 -85 128 -167 101 -111 145 -214 158 -371 12
-134 -33 -243 -131 -318 -66 -50 -216 -123 -295 -143 -78 -20 -94 -14 -190 71
-73 64 -101 80 -124 72 -35 -14 -6 -78 90 -204 48 -63 68 -101 85 -156 31
-105 58 -157 92 -178 17 -10 34 -16 39 -13 15 10 7 119 -17 209 -19 76 -21 92
-9 101 7 6 58 14 111 17 163 10 247 43 347 136 81 75 111 85 215 71 126 -17
239 11 284 71 23 32 39 101 26 114 -6 6 -25 5 -52 -3 -99 -29 -187 -44 -265
-45 l-82 -2 -3 185 c-3 205 -11 239 -78 336 -48 71 -151 168 -204 194 -51 25
-125 38 -125 23z"/>
<path d="M7085 10249 c-11 -17 4 -59 45 -128 31 -53 79 -191 80 -233 0 -3 -63
-8 -139 -10 -120 -3 -142 -6 -160 -22 -23 -21 -28 -52 -8 -59 6 -3 95 -3 197
0 148 5 206 3 288 -11 203 -34 309 -84 428 -201 100 -98 175 -211 289 -434
101 -199 135 -248 273 -393 155 -163 184 -220 202 -390 15 -149 -15 -255 -112
-398 -83 -123 -83 -131 -10 -270 33 -63 63 -134 67 -157 13 -82 -44 -215 -121
-283 -84 -73 -241 -128 -395 -137 -131 -8 -142 -4 -188 66 -83 129 -132 174
-230 212 -39 14 -57 17 -71 9 -38 -20 -22 -49 83 -153 154 -153 184 -232 172
-448 -9 -135 2 -123 -114 -133 -126 -11 -224 -81 -290 -204 -38 -74 -21 -72
-203 -24 -318 85 -522 34 -612 -151 -36 -72 -47 -173 -21 -183 31 -12 82 26
181 132 113 123 166 154 258 154 88 0 123 -13 231 -85 146 -98 171 -92 275 64
98 146 191 206 320 205 239 -2 487 -224 591 -529 21 -62 24 -87 23 -220 0
-198 -23 -293 -100 -429 -30 -53 -56 -108 -57 -122 -6 -87 157 -30 183 64 43
157 60 254 60 342 0 115 10 133 82 155 86 25 255 39 336 26 150 -23 326 -94
412 -166 123 -103 172 -88 230 73 87 242 184 322 443 367 74 12 142 27 151 32
16 9 16 10 0 24 -11 9 -49 15 -109 17 -108 4 -231 -21 -332 -69 -117 -56 -229
-183 -267 -303 -21 -67 -27 -68 -123 -25 -106 47 -285 107 -374 124 -115 21
-189 19 -312 -12 -85 -21 -110 -24 -116 -14 -5 7 -11 40 -14 74 -12 123 -75
265 -170 386 -97 122 -279 242 -413 272 -30 7 -58 17 -63 23 -6 7 -6 29 0 56
5 25 12 101 16 170 l8 125 95 -4 c410 -15 705 213 688 533 -5 101 -44 191
-114 266 l-47 51 21 27 c156 195 223 393 176 517 -34 87 -39 81 83 89 352 23
572 82 657 176 30 33 36 48 36 83 0 42 -35 128 -55 134 -5 2 -53 -35 -105 -82
-156 -140 -290 -192 -473 -183 -154 8 -265 65 -413 212 -93 92 -154 183 -279
411 -121 222 -166 287 -264 385 -129 128 -271 195 -468 221 -120 15 -118 14
-94 45 28 36 27 50 -15 133 -37 75 -115 164 -175 200 -39 24 -45 25 -54 10z"/>
<path d="M9435 10176 c-30 -46 -29 -87 8 -237 63 -254 60 -301 -25 -483 -61
-130 -71 -187 -38 -229 12 -15 66 -50 120 -77 169 -85 319 -225 458 -427 289
-422 387 -924 256 -1315 -111 -335 -365 -607 -722 -775 -128 -60 -152 -77
-152 -105 0 -34 44 -44 116 -25 199 52 434 217 559 393 75 105 94 111 193 64
114 -54 146 -83 231 -208 93 -138 129 -175 162 -170 22 3 24 8 24 58 -1 135
-122 290 -287 369 -46 21 -98 42 -115 46 -18 4 -35 10 -38 15 -3 5 13 36 34
70 81 124 123 271 143 496 11 126 6 229 -18 386 -12 73 -3 84 219 265 63 52
146 82 247 89 128 9 206 51 142 75 -15 6 -67 13 -117 16 -165 10 -287 -41
-432 -180 -48 -46 -87 -76 -92 -71 -4 5 -25 58 -45 118 -54 159 -105 253 -186
343 -64 72 -99 126 -114 179 -5 16 4 35 36 72 63 75 167 262 174 315 4 25 10
50 14 57 19 31 220 41 306 15 27 -8 87 -37 134 -65 47 -27 97 -50 112 -50 30
0 58 32 58 65 0 28 -45 70 -95 89 -111 42 -344 86 -462 86 l-53 0 0 63 c-1
132 -18 256 -41 304 -30 62 -151 184 -214 215 -125 63 -138 38 -34 -66 84 -85
123 -156 149 -275 36 -162 23 -332 -36 -474 -39 -93 -124 -238 -138 -235 -19
4 -221 231 -266 299 -57 83 -67 127 -46 216 40 177 10 495 -61 656 -28 62 -44
70 -68 33z"/>
<path d="M7090 9191 c-24 -16 -2 -41 79 -89 42 -26 91 -66 119 -100 26 -31 75
-86 110 -124 35 -38 62 -76 62 -88 0 -28 -23 -70 -76 -144 -132 -180 -150
-462 -47 -705 29 -68 33 -85 22 -92 -8 -5 -54 -9 -104 -9 -106 0 -206 -20
-278 -54 -72 -33 -209 -146 -246 -203 -33 -49 -34 -61 -9 -76 27 -18 66 2 153
78 97 84 195 145 273 171 50 16 64 16 225 0 188 -18 307 -21 307 -8 0 19 -39
42 -88 52 -64 12 -109 34 -116 57 -61 210 -79 303 -79 403 1 181 70 386 151
448 32 24 46 27 146 32 129 6 170 23 200 83 17 36 16 107 -2 107 -4 0 -45 -7
-92 -15 -76 -13 -91 -13 -145 0 -79 21 -161 68 -283 163 -55 43 -117 87 -138
97 -46 22 -123 30 -144 16z"/>
<path d="M7780 5175 c0 -14 14 -67 30 -118 46 -143 36 -272 -27 -355 -48 -64
-59 -67 -201 -52 -170 17 -209 7 -310 -84 -57 -52 -84 -69 -130 -81 -212 -59
-268 -83 -246 -105 21 -21 90 -30 146 -20 80 15 139 37 288 103 168 76 198 78
315 21 l80 -39 185 1 c396 2 539 38 759 191 114 78 144 117 149 192 7 99 -19
93 -148 -38 -96 -97 -157 -134 -299 -181 -190 -62 -429 -91 -474 -57 -16 11
-15 16 13 57 54 81 65 130 65 285 -1 129 -3 144 -25 190 -42 85 -170 153 -170
90z"/>
<path d="M9527 4978 c-23 -35 -6 -124 57 -312 66 -196 80 -264 74 -360 -6 -92
-40 -167 -102 -224 -88 -81 -177 -108 -337 -99 -117 6 -194 28 -285 83 -40 24
-65 33 -81 29 -13 -3 -59 -38 -102 -78 -128 -118 -286 -190 -520 -239 -88 -19
-137 -22 -291 -22 -173 1 -192 3 -300 31 -124 33 -268 91 -357 145 -30 18
-100 74 -154 125 -54 50 -108 94 -119 98 -27 9 -70 -19 -70 -45 0 -47 110
-139 304 -255 117 -69 121 -73 133 -116 15 -56 16 -183 2 -232 -16 -58 -57
-96 -182 -170 -124 -74 -151 -96 -145 -124 6 -32 47 -44 128 -40 139 9 231 63
282 166 21 42 23 59 23 206 1 153 1 160 20 159 11 -1 74 -12 140 -25 104 -20
150 -24 345 -24 195 0 240 3 337 23 204 41 422 131 527 217 49 40 66 43 90 16
9 -10 45 -32 79 -47 59 -27 69 -29 202 -29 158 0 215 11 321 61 90 42 173 128
200 206 31 90 25 210 -25 443 -63 296 -91 374 -154 433 l-25 24 -15 -24z"/>
</g>
</svg>
