<svg width="1920" height="1799" viewBox="0 0 1920 1799" fill="none" xmlns="http://www.w3.org/2000/svg">
<path opacity="0.0144928" d="M1690.23 1499.65C1699.29 1504.45 1710.43 1502.69 1717.55 1495.32L1943.89 1261.24C1948.1 1256.88 1950.42 1251.04 1950.35 1244.97L1944.73 778.909C1944.67 774.142 1943.14 769.51 1940.33 765.655L1700.19 435.549C1695.1 428.559 1686.53 425.01 1677.99 426.362L1397.54 470.781C1389 472.134 1381.94 478.159 1379.27 486.378L1252.88 874.537C1251.41 879.07 1251.38 883.949 1252.79 888.501L1391.47 1333.49C1393.28 1339.28 1397.29 1344.12 1402.65 1346.96L1690.23 1499.65Z" stroke="url(#paint0_linear_4_25)" stroke-opacity="0.43" stroke-width="4"/>
<path opacity="0.0289855" d="M1639.08 1498.16C1647.86 1503.4 1659.04 1502.23 1666.53 1495.27L1903.45 1275.33C1907.9 1271.2 1910.53 1265.47 1910.78 1259.41L1929.61 797.976C1929.8 793.198 1928.5 788.478 1925.89 784.473L1704.81 445.496C1700.09 438.265 1691.73 434.284 1683.14 435.186L1402.43 464.69C1393.84 465.592 1386.49 471.227 1383.38 479.28L1237.6 856.815C1235.88 861.276 1235.59 866.163 1236.78 870.796L1351.13 1318.23C1352.63 1324.11 1356.4 1329.16 1361.61 1332.27L1639.08 1498.16Z" stroke="url(#paint1_linear_4_25)" stroke-opacity="0.43" stroke-width="4"/>
<path opacity="0.0434783" d="M1588.32 1495.12C1596.8 1500.78 1607.99 1500.2 1615.83 1493.67L1862.47 1288.32C1867.14 1284.43 1870.09 1278.85 1870.65 1272.8L1913.43 817.271C1913.88 812.496 1912.82 807.7 1910.41 803.555L1708.66 456.788C1704.32 449.336 1696.18 444.934 1687.58 445.385L1407.39 460.069C1398.78 460.52 1391.15 465.749 1387.61 473.613L1223.22 839.569C1221.25 843.944 1220.7 848.824 1221.65 853.526L1311.8 1302.09C1313 1308.05 1316.51 1313.29 1321.56 1316.67L1588.32 1495.12Z" stroke="url(#paint2_linear_4_25)" stroke-opacity="0.43" stroke-width="4"/>
<path opacity="0.057971" d="M1538.04 1490.56C1546.19 1496.64 1557.37 1496.64 1565.52 1490.56L1821.02 1300.22C1825.91 1296.58 1829.15 1291.15 1830.03 1285.13L1896.19 836.736C1896.89 831.977 1896.09 827.117 1893.88 822.841L1711.67 469.37C1707.72 461.717 1699.83 456.908 1691.22 456.908L1412.34 456.908C1403.73 456.908 1395.84 461.717 1391.9 469.37L1209.68 822.841C1207.48 827.117 1206.67 831.977 1207.37 836.736L1273.53 1285.13C1274.42 1291.15 1277.66 1296.58 1282.54 1300.22L1538.04 1490.56Z" stroke="url(#paint3_linear_4_25)" stroke-opacity="0.43" stroke-width="4"/>
<path opacity="0.0724638" d="M1488.31 1484.54C1496.13 1491 1507.25 1491.58 1515.7 1485.97L1779.16 1310.99C1784.24 1307.62 1787.77 1302.36 1788.98 1296.39L1877.89 856.313C1878.85 851.583 1878.29 846.671 1876.3 842.274L1713.77 483.184C1710.22 475.351 1702.6 470.149 1694.02 469.699L1417.2 455.192C1408.62 454.742 1400.5 459.119 1396.15 466.538L1196.97 806.672C1194.54 810.837 1193.47 815.663 1193.92 820.468L1236.35 1267.42C1236.92 1273.49 1239.89 1279.09 1244.58 1282.97L1488.31 1484.54Z" stroke="url(#paint4_linear_4_25)" stroke-opacity="0.43" stroke-width="4"/>
<path opacity="0.0869565" d="M1439.22 1477.08C1446.67 1483.91 1457.71 1485.07 1466.43 1479.94L1736.95 1320.63C1742.21 1317.53 1746.03 1312.46 1747.55 1306.55L1858.53 875.942C1859.73 871.253 1859.43 866.303 1857.66 861.796L1714.9 498.169C1711.76 490.177 1704.43 484.597 1695.89 483.699L1421.9 454.901C1413.36 454.004 1405.03 457.937 1400.3 465.103L1185.05 791.102C1182.38 795.142 1181.06 799.922 1181.27 804.759L1200.29 1249.03C1200.55 1255.13 1203.22 1260.88 1207.73 1265.01L1439.22 1477.08Z" stroke="url(#paint5_linear_4_25)" stroke-opacity="0.43" stroke-width="4"/>
<path opacity="0.101449" d="M1390.83 1468.24C1397.91 1475.42 1408.83 1477.15 1417.78 1472.51L1694.46 1329.13C1699.89 1326.32 1703.98 1321.45 1705.81 1315.62L1838.1 895.564C1839.56 890.931 1839.52 885.956 1837.97 881.35L1715.01 514.26C1712.29 506.13 1705.27 500.19 1696.8 498.848L1426.35 456.013C1417.88 454.672 1409.37 458.152 1404.26 465.043L1173.88 776.168C1170.99 780.072 1169.41 784.79 1169.37 789.646L1165.38 1230.02C1165.32 1236.14 1167.71 1242.03 1172 1246.38L1390.83 1468.24Z" stroke="url(#paint6_linear_4_25)" stroke-opacity="0.43" stroke-width="4"/>
<path opacity="0.115942" d="M1343.2 1458.08C1349.89 1465.59 1360.68 1467.88 1369.84 1463.74L1651.74 1336.48C1657.33 1333.96 1661.67 1329.32 1663.82 1323.58L1816.63 915.123C1818.34 910.559 1818.55 905.57 1817.24 900.877L1714.04 531.391C1711.74 523.145 1705.05 516.86 1696.67 515.08L1430.48 458.499C1422.11 456.719 1413.44 459.738 1407.98 466.335L1163.42 761.903C1160.32 765.658 1158.48 770.302 1158.18 775.166L1131.65 1210.46C1131.28 1216.58 1133.36 1222.59 1137.44 1227.17L1343.2 1458.08Z" stroke="url(#paint7_linear_4_25)" stroke-opacity="0.43" stroke-width="4"/>
<path opacity="0.130435" d="M1296.42 1446.65C1302.7 1454.46 1313.32 1457.3 1322.66 1453.68L1608.87 1342.7C1614.59 1340.48 1619.19 1336.06 1621.64 1330.44L1794.12 934.562C1796.07 930.08 1796.55 925.091 1795.47 920.321L1711.96 549.492C1710.08 541.152 1703.73 534.542 1695.47 532.329L1434.23 462.33C1425.97 460.118 1417.17 462.668 1411.37 468.951L1153.63 748.341C1150.32 751.935 1148.23 756.492 1147.68 761.35L1099.12 1190.43C1098.43 1196.53 1100.2 1202.65 1104.05 1207.43L1296.42 1446.65Z" stroke="url(#paint8_linear_4_25)" stroke-opacity="0.43" stroke-width="4"/>
<path opacity="0.144928" d="M1250.54 1434C1256.4 1442.09 1266.81 1445.47 1276.31 1442.37L1565.89 1347.76C1571.74 1345.85 1576.57 1341.69 1579.32 1336.19L1770.58 953.824C1772.78 949.437 1773.51 944.462 1772.68 939.628L1708.7 568.493C1707.25 560.081 1701.26 553.163 1693.14 550.526L1437.52 467.471C1429.41 464.833 1420.49 466.908 1414.38 472.861L1144.47 735.511C1140.95 738.933 1138.63 743.389 1137.82 748.228L1067.81 1169.99C1066.8 1176.05 1068.26 1182.27 1071.87 1187.24L1250.54 1434Z" stroke="url(#paint9_linear_4_25)" stroke-opacity="0.43" stroke-width="4"/>
<path opacity="0.15942" d="M1205.61 1420.2C1211.04 1428.55 1221.22 1432.46 1230.84 1429.88L1522.89 1351.7C1528.83 1350.1 1533.89 1346.19 1536.93 1340.84L1746.03 972.855C1748.47 968.575 1749.46 963.629 1748.87 958.742L1704.24 588.32C1703.22 579.858 1697.6 572.653 1689.65 569.599L1440.3 473.882C1432.34 470.828 1423.34 472.424 1416.92 478.03L1135.89 723.442C1132.19 726.679 1129.62 731.021 1128.56 735.829L1037.72 1149.21C1036.4 1155.22 1037.54 1161.51 1040.9 1166.68L1205.61 1420.2Z" stroke="url(#paint10_linear_4_25)" stroke-opacity="0.43" stroke-width="4"/>
<path opacity="0.173913" d="M1161.69 1405.31C1166.67 1413.9 1176.61 1418.32 1186.32 1416.27L1479.9 1354.5C1485.94 1353.23 1491.21 1349.59 1494.53 1344.4L1720.5 991.602C1723.16 987.442 1724.42 982.536 1724.07 977.608L1698.53 608.898C1697.95 600.408 1692.72 592.937 1684.94 589.475L1442.48 481.523C1434.71 478.062 1425.66 479.177 1418.95 484.42L1127.86 712.156C1123.97 715.199 1121.16 719.415 1119.85 724.178L1008.87 1128.17C1007.24 1134.11 1008.06 1140.47 1011.16 1145.8L1161.69 1405.31Z" stroke="url(#paint11_linear_4_25)" stroke-opacity="0.43" stroke-width="4"/>
<path opacity="0.188406" d="M1118.84 1389.4C1123.36 1398.2 1133.02 1403.12 1142.8 1401.61L1437 1356.19C1443.11 1355.24 1448.58 1351.89 1452.18 1346.87L1693.99 1010.01C1696.88 1005.98 1698.4 1001.13 1698.3 996.176L1691.56 630.15C1691.4 621.655 1686.57 613.938 1679 610.08L1444.02 490.35C1436.45 486.493 1427.37 487.123 1420.4 491.99L1120.32 701.677C1116.25 704.516 1113.22 708.592 1111.66 713.297L981.271 1106.93C979.329 1112.79 979.826 1119.19 982.652 1124.68L1118.84 1389.4Z" stroke="url(#paint12_linear_4_25)" stroke-opacity="0.43" stroke-width="4"/>
<path opacity="0.202899" d="M1077.09 1372.54C1081.15 1381.52 1090.5 1386.92 1100.32 1385.95L1394.25 1356.78C1400.4 1356.17 1406.05 1353.1 1409.92 1348.27L1666.55 1028.04C1669.66 1024.15 1671.43 1019.37 1671.59 1014.39L1683.29 652C1683.56 643.522 1679.14 635.581 1671.8 631.34L1444.86 500.314C1437.51 496.073 1428.42 496.22 1421.22 500.696L1113.23 692.024C1109 694.649 1105.74 698.575 1103.93 703.21L954.911 1085.57C952.664 1091.34 952.835 1097.76 955.384 1103.4L1077.09 1372.54Z" stroke="url(#paint13_linear_4_25)" stroke-opacity="0.43" stroke-width="4"/>
<path opacity="0.217391" d="M1036.49 1354.79C1040.08 1363.95 1049.1 1369.8 1058.92 1369.36L1351.69 1356.29C1357.88 1356.01 1363.7 1353.25 1367.82 1348.62L1638.19 1045.62C1641.51 1041.9 1643.53 1037.19 1643.94 1032.21L1673.69 674.37C1674.4 665.931 1670.4 657.788 1663.3 653.176L1444.93 511.366C1437.83 506.754 1428.77 506.418 1421.34 510.491L1106.54 683.216C1102.16 685.618 1098.68 689.379 1096.63 693.931L929.791 1064.16C927.245 1069.81 927.087 1076.25 929.353 1082.02L1036.49 1354.79Z" stroke="url(#paint14_linear_4_25)" stroke-opacity="0.43" stroke-width="4"/>
<path opacity="0.231884" d="M997.07 1336.24C1000.19 1345.53 1008.85 1351.83 1018.65 1351.92L1309.39 1354.73C1315.59 1354.79 1321.56 1352.34 1325.94 1347.94L1608.94 1062.72C1612.47 1059.17 1614.74 1054.55 1615.41 1049.59L1662.77 697.18C1663.89 688.801 1660.33 680.48 1653.49 675.51L1444.2 523.453C1437.36 518.483 1428.35 517.667 1420.72 521.327L1100.2 675.266C1095.68 677.436 1092 681.021 1089.7 685.477L905.905 1042.77C903.066 1048.29 902.577 1054.72 904.553 1060.61L997.07 1336.24Z" stroke="url(#paint15_linear_4_25)" stroke-opacity="0.43" stroke-width="4"/>
<path opacity="0.246377" d="M958.872 1316.95C961.509 1326.36 969.799 1333.07 979.546 1333.7L1267.39 1352.15C1273.6 1352.55 1279.7 1350.41 1284.31 1346.24L1578.84 1079.3C1582.57 1075.92 1585.09 1071.42 1586.01 1066.47L1650.49 720.352C1652.04 712.055 1648.91 703.578 1642.35 698.266L1442.61 536.518C1436.05 531.207 1427.11 529.915 1419.32 533.152L1094.17 668.186C1089.52 670.115 1085.64 673.513 1083.11 677.861L883.241 1021.46C880.114 1026.84 879.297 1033.25 880.976 1039.24L958.872 1316.95Z" stroke="url(#paint16_linear_4_25)" stroke-opacity="0.43" stroke-width="4"/>
<path opacity="0.26087" d="M921.919 1297.01C924.072 1306.5 931.967 1313.61 941.632 1314.76L1225.76 1348.55C1231.94 1349.29 1238.16 1347.48 1243 1343.55L1547.93 1095.3C1551.84 1092.12 1554.6 1087.73 1555.78 1082.82L1636.86 743.807C1638.82 735.613 1636.14 727.003 1629.88 721.365L1440.12 550.507C1433.86 544.869 1425.02 543.106 1417.07 545.912L1088.4 661.984C1083.63 663.666 1079.56 666.868 1076.8 671.095L861.784 1000.31C858.378 1005.52 857.232 1011.9 858.611 1017.97L921.919 1297.01Z" stroke="url(#paint17_linear_4_25)" stroke-opacity="0.43" stroke-width="4"/>
<path opacity="0.275362" d="M886.234 1276.48C887.902 1286.04 895.384 1293.52 904.938 1295.19L1184.53 1343.98C1190.68 1345.05 1197 1343.58 1202.04 1339.9L1516.24 1110.7C1520.33 1107.71 1523.32 1103.45 1524.75 1098.59L1621.87 767.466C1624.24 759.395 1622.01 750.676 1616.06 744.729L1436.69 565.357C1430.74 559.41 1422.02 557.183 1413.95 559.55L1082.83 656.669C1077.97 658.095 1073.71 661.089 1070.72 665.184L841.515 979.376C837.837 984.418 836.366 990.738 837.438 996.886L886.234 1276.48Z" stroke="url(#paint18_linear_4_25)" stroke-opacity="0.43" stroke-width="4"/>
<path opacity="0.289855" d="M851.839 1255.45C853.02 1265.04 860.071 1272.87 869.486 1275.05L1143.77 1338.46C1149.86 1339.87 1156.26 1338.74 1161.5 1335.33L1483.8 1125.44C1488.07 1122.66 1491.29 1118.55 1492.97 1113.74L1605.52 791.25C1608.29 783.324 1606.52 774.52 1600.9 768.281L1432.28 581.011C1426.66 574.772 1418.09 572.089 1409.92 574.012L1077.43 652.243C1072.47 653.408 1068.05 656.183 1064.84 660.134L822.413 958.731C818.473 963.585 816.677 969.834 817.441 976.039L851.839 1255.45Z" stroke="url(#paint19_linear_4_25)" stroke-opacity="0.43" stroke-width="4"/>
<path opacity="0.304348" d="M818.747 1233.98C819.442 1243.59 826.045 1251.74 835.294 1254.42L1103.51 1332.03C1109.52 1333.77 1115.99 1332.98 1121.41 1329.85L1450.67 1139.49C1455.09 1136.94 1458.54 1132.98 1460.46 1128.25L1587.83 815.082C1590.98 807.32 1589.67 798.455 1584.4 791.943L1426.86 597.403C1421.59 590.891 1413.19 587.762 1404.94 589.236L1072.14 648.707C1067.11 649.606 1062.52 652.154 1059.1 655.949L804.451 938.436C800.258 943.088 798.143 949.249 798.595 955.496L818.747 1233.98Z" stroke="url(#paint20_linear_4_25)" stroke-opacity="0.43" stroke-width="4"/>
<path opacity="0.318841" d="M786.966 1212.17C787.178 1221.76 793.319 1230.21 802.374 1233.37L1063.79 1324.72C1069.71 1326.79 1076.22 1326.35 1081.81 1323.5L1416.88 1152.83C1421.45 1150.5 1425.11 1146.71 1427.28 1142.06L1568.79 838.886C1572.33 831.307 1571.47 822.405 1566.56 815.639L1420.4 614.473C1415.48 607.707 1407.28 604.141 1398.98 605.164L1066.91 646.062C1061.82 646.689 1057.09 649.001 1053.46 652.628L787.601 918.551C783.164 922.988 780.733 929.046 780.872 935.319L786.966 1212.17Z" stroke="url(#paint21_linear_4_25)" stroke-opacity="0.43" stroke-width="4"/>
<path opacity="0.333333" d="M756.505 1190.07C756.235 1199.63 761.901 1208.35 770.737 1211.99L1024.66 1316.57C1030.47 1318.97 1037.01 1318.88 1042.76 1316.33L1382.47 1165.42C1387.18 1163.32 1391.05 1159.71 1393.46 1155.16L1548.43 862.585C1552.33 855.208 1551.94 846.294 1547.39 839.293L1412.87 632.154C1408.33 625.153 1400.35 621.165 1392.02 621.734L1061.71 644.302C1056.57 644.653 1051.69 646.719 1047.87 650.169L771.829 899.136C767.161 903.346 764.42 909.284 764.243 915.567L756.505 1190.07Z" stroke="url(#paint22_linear_4_25)" stroke-opacity="0.43" stroke-width="4"/>
<path opacity="0.347826" d="M727.362 1167.78C726.617 1177.27 731.795 1186.24 740.386 1190.34L986.155 1307.63C991.839 1310.34 998.387 1310.6 1004.27 1308.36L1347.5 1177.22C1352.34 1175.37 1356.4 1171.95 1359.05 1167.51L1526.76 886.106C1531.02 878.95 1531.09 870.046 1526.92 862.832L1404.26 650.381C1400.1 643.167 1392.36 638.768 1384.03 638.883L1056.47 643.421C1051.3 643.493 1046.3 645.305 1042.28 648.566L757.101 880.247C752.213 884.218 749.167 890.021 748.674 896.3L727.362 1167.78Z" stroke="url(#paint23_linear_4_25)" stroke-opacity="0.43" stroke-width="4"/>
<path opacity="0.362319" d="M699.536 1145.37C698.322 1154.77 703.002 1163.96 711.323 1168.5L948.313 1297.93C953.85 1300.95 960.387 1301.57 966.392 1299.63L1312.01 1188.22C1316.96 1186.63 1321.21 1183.41 1324.1 1179.08L1503.81 909.378C1508.42 902.459 1508.93 893.591 1505.16 886.183L1394.54 669.089C1390.77 661.681 1383.29 656.887 1374.98 656.55L1051.16 643.41C1045.97 643.2 1040.86 644.752 1036.66 647.816L743.377 861.941C738.282 865.662 734.938 871.312 734.13 877.57L699.536 1145.37Z" stroke="url(#paint24_linear_4_25)" stroke-opacity="0.43" stroke-width="4"/>
<path opacity="0.376812" d="M673.019 1122.91C671.342 1132.2 675.515 1141.58 683.543 1146.55L911.163 1287.51C916.538 1290.84 923.046 1291.81 929.157 1290.2L1276.05 1198.4C1281.09 1197.06 1285.53 1194.05 1288.64 1189.86L1479.6 932.329C1484.54 925.665 1485.51 916.855 1482.13 909.275L1383.71 688.212C1380.33 680.632 1373.14 675.457 1364.88 674.67L1045.72 644.258C1040.53 643.763 1035.32 645.049 1030.95 647.904L730.617 844.268C725.326 847.727 721.692 853.212 720.569 859.433L673.019 1122.91Z" stroke="url(#paint25_linear_4_25)" stroke-opacity="0.43" stroke-width="4"/>
<path opacity="0.391304" d="M647.799 1100.48C645.668 1109.64 649.327 1119.17 657.04 1124.55L874.74 1276.43C879.934 1280.06 886.394 1281.38 892.595 1280.09L1239.66 1207.72C1244.79 1206.65 1249.4 1203.86 1252.73 1199.81L1454.16 954.893C1459.42 948.499 1460.84 939.77 1457.87 932.041L1371.75 707.682C1368.78 699.953 1361.89 694.414 1353.7 693.181L1040.12 645.952C1034.94 645.172 1029.65 646.185 1025.12 648.822L718.777 827.275C713.304 830.464 709.387 835.768 707.952 841.937L707.952 841.938L647.799 1100.48Z" stroke="url(#paint26_linear_4_25)" stroke-opacity="0.43" stroke-width="4"/>
<path opacity="0.405797" d="M623.859 1078.14C621.283 1087.15 624.424 1096.81 631.8 1102.58L839.069 1264.73C844.067 1268.64 850.459 1270.31 856.732 1269.35L1202.9 1216.18C1208.1 1215.38 1212.88 1212.82 1216.42 1208.93L1427.53 977.002C1433.09 970.892 1434.95 962.269 1432.4 954.412L1358.65 727.435C1356.1 719.577 1349.53 713.693 1341.43 712.019L1034.32 648.475C1029.16 647.409 1023.8 648.143 1019.12 650.555L707.809 811.013C702.168 813.921 697.979 819.03 696.234 825.132L623.859 1078.14Z" stroke="url(#paint27_linear_4_25)" stroke-opacity="0.43" stroke-width="4"/>
<path opacity="0.42029" d="M601.18 1055.98C598.171 1064.8 600.788 1074.57 607.808 1080.71L804.174 1252.46C808.96 1256.64 815.266 1258.66 821.594 1258.03L1165.82 1223.76C1171.08 1223.24 1176 1220.92 1179.75 1217.19L1399.75 998.593C1405.6 992.783 1407.89 984.287 1405.76 976.325L1344.42 747.404C1342.28 739.442 1336.05 733.23 1328.08 731.122L1028.26 651.811C1023.15 650.458 1017.73 650.909 1012.91 653.086L697.665 795.522C691.871 798.141 687.418 803.041 685.366 809.06L601.18 1055.98Z" stroke="url(#paint28_linear_4_25)" stroke-opacity="0.43" stroke-width="4"/>
<path opacity="0.434783" d="M579.739 1034.05C576.308 1042.68 578.4 1052.52 585.044 1059.01L770.078 1239.65C774.637 1244.1 780.839 1246.46 787.204 1246.17L1128.46 1230.45C1133.77 1230.21 1138.83 1228.13 1142.78 1224.58L1370.86 1019.61C1376.97 1014.11 1379.69 1005.76 1377.98 997.718L1329.05 767.525C1327.34 759.48 1321.46 752.96 1313.64 750.426L1021.91 655.938C1016.86 654.301 1011.39 654.463 1006.44 656.399L688.296 780.844C682.362 783.165 677.656 787.843 675.302 793.764L579.739 1034.05Z" stroke="url(#paint29_linear_4_25)" stroke-opacity="0.43" stroke-width="4"/>
<path opacity="0.449275" d="M559.507 1012.43C555.667 1020.84 557.233 1030.73 563.483 1037.54L736.801 1226.37C741.118 1231.07 747.195 1233.77 753.579 1233.82L1090.89 1236.24C1096.23 1236.28 1101.41 1234.46 1105.55 1231.1L1340.89 1039.99C1347.26 1034.81 1350.39 1026.64 1349.11 1018.53L1312.55 787.732C1311.27 779.628 1305.77 772.82 1298.11 769.869L1015.23 660.833C1010.25 658.913 1004.76 658.786 999.695 660.472L679.645 767.015C673.588 769.031 668.641 773.475 665.989 779.282L559.507 1012.43Z" stroke="url(#paint30_linear_4_25)" stroke-opacity="0.43" stroke-width="4"/>
<path opacity="0.463768" d="M540.454 991.18C536.219 999.349 537.26 1009.26 543.101 1016.37L704.356 1212.66C708.417 1217.6 714.354 1220.63 720.74 1221.02L1053.14 1241.13C1058.5 1241.45 1063.79 1239.9 1068.12 1236.73L1309.91 1059.67C1316.51 1054.84 1320.05 1046.85 1319.19 1038.71L1294.94 807.963C1294.08 799.821 1288.96 792.749 1281.5 789.391L1008.18 666.474C1003.29 664.275 997.787 663.853 992.618 665.283L671.661 754.068C665.495 755.773 660.318 759.971 657.374 765.65L540.454 991.18Z" stroke="url(#paint31_linear_4_25)" stroke-opacity="0.43" stroke-width="4"/>
<path opacity="0.478261" d="M522.545 970.364C517.93 978.275 518.449 988.17 523.865 995.556L672.761 1198.57C676.552 1203.74 682.328 1207.09 688.697 1207.82L1015.28 1245.11C1020.63 1245.72 1026.03 1244.43 1030.53 1241.47L1277.95 1078.62C1284.77 1074.13 1288.7 1066.36 1288.27 1058.2L1276.22 828.155C1275.79 820 1271.07 812.683 1263.81 808.93L1000.73 672.834C995.946 670.358 990.442 669.641 985.181 670.809L664.287 742.035C658.029 743.424 652.634 747.362 649.404 752.899L522.545 970.364Z" stroke="url(#paint32_linear_4_25)" stroke-opacity="0.43" stroke-width="4"/>
<path opacity="0.492754" d="M505.741 950.04C500.762 957.676 500.762 967.532 505.741 975.167L642.022 1184.15C645.531 1189.53 651.131 1193.2 657.465 1194.26L977.348 1248.18C982.688 1249.08 988.175 1248.07 992.842 1245.32L1245.07 1096.78C1252.09 1092.64 1256.4 1085.11 1256.4 1076.96L1256.4 848.247C1256.4 840.101 1252.09 832.563 1245.07 828.429L992.842 679.886C988.175 677.138 982.688 676.125 977.348 677.025L657.465 730.943C651.131 732.01 645.531 735.678 642.022 741.059L505.741 950.04Z" stroke="url(#paint33_linear_4_25)" stroke-opacity="0.43" stroke-width="4"/>
<path opacity="0.507246" d="M490.004 930.266C484.677 937.609 484.164 947.398 488.694 955.257L612.149 1169.45C615.363 1175.03 620.768 1179 627.05 1180.41L939.401 1250.35C944.713 1251.54 950.274 1250.81 955.096 1248.28L1211.33 1114.1C1218.53 1110.33 1223.2 1103.04 1223.63 1094.93L1235.51 868.181C1235.94 860.066 1232.05 852.33 1225.29 847.828L984.48 687.6C979.949 684.585 974.494 683.275 969.087 683.902L651.136 720.813C644.742 721.555 638.951 724.943 635.171 730.153L490.004 930.266Z" stroke="url(#paint34_linear_4_25)" stroke-opacity="0.43" stroke-width="4"/>
<path opacity="0.521739" d="M475.288 911.097C469.631 918.132 468.612 927.825 472.683 935.882L583.146 1154.52C586.055 1160.28 591.248 1164.55 597.459 1166.29L901.488 1251.62C906.755 1253.1 912.378 1252.65 917.345 1250.36L1176.78 1130.55C1184.14 1127.15 1189.17 1120.13 1190.01 1112.07L1213.58 887.898C1214.42 879.838 1210.97 871.927 1204.48 867.074L975.616 695.945C971.234 692.669 965.828 691.063 960.368 691.413L645.242 711.666C638.805 712.08 632.837 715.178 628.794 720.205L475.288 911.097Z" stroke="url(#paint35_linear_4_25)" stroke-opacity="0.43" stroke-width="4"/>
<path opacity="0.536232" d="M461.547 892.583C455.578 899.294 454.062 908.866 457.665 917.093L555.015 1139.41C557.608 1145.33 562.574 1149.89 568.696 1151.96L863.657 1252C868.866 1253.76 874.536 1253.61 879.638 1251.55L1141.49 1146.09C1148.98 1143.07 1154.34 1136.33 1155.61 1128.35L1190.61 907.343C1191.88 899.36 1188.86 891.299 1182.66 886.11L966.22 704.891C962.003 701.36 956.66 699.457 951.16 699.528L639.723 703.52C633.258 703.603 627.127 706.403 622.83 711.233L461.547 892.583Z" stroke="url(#paint36_linear_4_25)" stroke-opacity="0.43" stroke-width="4"/>
<path opacity="0.550725" d="M448.732 874.771C442.47 881.145 440.467 890.57 443.595 898.94L527.756 1124.16C530.024 1130.23 534.746 1135.06 540.762 1137.47L825.96 1251.5C831.094 1253.55 836.797 1253.69 842.022 1251.88L1105.5 1160.68C1113.12 1158.04 1118.8 1151.61 1120.47 1143.72L1166.65 926.462C1168.33 918.577 1165.76 910.39 1159.87 904.884L956.266 714.402C952.228 710.624 946.964 708.427 941.438 708.214L634.517 696.386C628.043 696.137 621.763 698.63 617.223 703.251L448.732 874.771Z" stroke="url(#paint37_linear_4_25)" stroke-opacity="0.43" stroke-width="4"/>
<path opacity="0.565217" d="M436.791 857.706C430.256 863.731 427.777 872.983 430.425 881.468L501.364 1108.84C503.298 1115.03 507.761 1120.13 513.653 1122.86L788.442 1250.13C793.487 1252.47 799.208 1252.9 804.546 1251.34L1068.89 1174.29C1076.61 1172.04 1082.59 1165.93 1084.67 1158.16L1141.73 945.204C1143.81 937.44 1141.69 929.153 1136.13 923.346L945.728 724.444C941.884 720.427 936.714 717.94 931.177 717.441L629.563 690.273C623.096 689.691 616.685 691.869 611.91 696.27L436.791 857.706Z" stroke="url(#paint38_linear_4_25)" stroke-opacity="0.43" stroke-width="4"/>
<path opacity="0.57971" d="M425.673 841.43C418.884 847.094 415.942 856.148 418.105 864.72L475.833 1093.47C477.426 1099.78 481.616 1105.12 487.366 1108.17L751.151 1247.92C756.091 1250.54 761.816 1251.27 767.254 1249.97L1031.71 1186.9C1039.51 1185.04 1045.78 1179.26 1048.25 1171.64L1115.87 963.52C1118.35 955.897 1116.68 947.535 1111.47 941.449L934.585 734.981C930.947 730.735 925.888 727.96 920.352 727.173L624.801 685.187C618.358 684.272 611.829 686.129 606.832 690.298L425.673 841.43Z" stroke="url(#paint39_linear_4_25)" stroke-opacity="0.43" stroke-width="4"/>
<path opacity="0.594203" d="M415.319 825.981C408.298 831.272 404.908 840.104 406.585 848.735L451.156 1078.12C452.4 1084.52 456.303 1090.09 461.895 1093.45L714.133 1244.88C718.954 1247.77 724.667 1248.8 730.194 1247.77L994.04 1198.49C1001.89 1197.03 1008.43 1191.59 1011.29 1184.13L1089.12 981.363C1091.99 973.903 1090.77 965.49 1085.92 959.144L922.814 745.977C919.397 741.512 914.463 738.453 908.944 737.378L620.17 681.131C613.768 679.884 607.138 681.413 601.93 685.339L415.319 825.981Z" stroke="url(#paint40_linear_4_25)" stroke-opacity="0.43" stroke-width="4"/>
<path opacity="0.608696" d="M405.677 811.39C398.443 816.301 394.62 824.889 395.81 833.551L427.319 1062.82C428.209 1069.3 431.813 1075.09 437.23 1078.75L677.431 1241.03C682.116 1244.2 687.804 1245.52 693.408 1244.76L955.931 1209.04C963.825 1207.97 970.601 1202.88 973.841 1195.6L1061.51 998.69C1064.75 991.412 1064 982.975 1059.51 976.39L910.397 757.395C907.214 752.721 902.421 749.383 896.933 748.019L615.609 678.102C609.265 676.525 602.55 677.722 597.142 681.394L405.677 811.39Z" stroke="url(#paint41_linear_4_25)" stroke-opacity="0.43" stroke-width="4"/>
<path opacity="0.623188" d="M396.684 797.69C389.26 802.212 385.02 810.534 385.725 819.198L404.311 1047.63C404.843 1054.16 408.134 1060.15 413.359 1064.1L641.089 1236.4C645.625 1239.83 651.271 1241.46 656.938 1240.97L917.454 1218.53C925.366 1217.85 932.367 1213.13 935.973 1206.06L1033.09 1015.46C1036.69 1008.38 1036.39 999.947 1032.29 993.145L897.318 769.196C894.382 764.324 889.745 760.714 884.303 759.061L611.059 676.094C604.79 674.191 598.006 675.052 592.41 678.46L396.684 797.69Z" stroke="url(#paint42_linear_4_25)" stroke-opacity="0.43" stroke-width="4"/>
<path opacity="0.637681" d="M388.282 784.906C380.69 789.033 376.051 797.067 376.274 805.706L382.115 1032.57C382.284 1039.14 385.251 1045.32 390.268 1049.55L605.146 1231C609.518 1234.69 615.109 1236.62 620.828 1236.41L878.673 1226.96C886.584 1226.67 893.79 1222.33 897.748 1215.47L1003.89 1031.63C1007.85 1024.78 1008 1016.37 1004.3 1009.37L883.564 781.342C880.887 776.285 876.42 772.407 871.036 770.467L606.459 675.101C600.281 672.875 593.446 673.395 587.677 676.531L388.282 784.906Z" stroke="url(#paint43_linear_4_25)" stroke-opacity="0.43" stroke-width="4"/>
<path opacity="0.652174" d="M380.412 773.061C372.673 776.786 367.654 784.514 367.398 793.1L360.712 1017.71C360.516 1024.29 363.148 1030.63 367.942 1035.14L569.643 1224.88C573.837 1228.83 579.358 1231.05 585.115 1231.13L839.653 1234.31C847.543 1234.41 854.933 1230.46 859.23 1223.84L973.958 1047.17C978.255 1040.56 978.86 1032.2 975.561 1025.03L869.122 793.794C866.714 788.564 862.433 784.427 857.123 782.2L601.752 675.109C595.682 672.564 588.813 672.741 582.882 675.596L380.412 773.061Z" stroke="url(#paint44_linear_4_25)" stroke-opacity="0.43" stroke-width="4"/>
<path opacity="0.666667" d="M373.012 762.174C365.147 765.495 359.769 772.897 359.041 781.403L340.082 1003.07C339.52 1009.64 341.808 1016.14 346.364 1020.91L534.617 1218.06C538.618 1222.25 544.053 1224.77 549.836 1225.13L800.462 1240.59C808.311 1241.07 815.862 1237.51 820.485 1231.15L943.343 1062.05C947.965 1055.69 949.017 1047.41 946.131 1040.09L853.981 806.511C851.855 801.121 847.773 796.732 842.552 794.222L596.882 676.105C590.936 673.246 584.048 673.079 577.97 675.645L373.012 762.174Z" stroke="url(#paint45_linear_4_25)" stroke-opacity="0.43" stroke-width="4"/>
<path opacity="0.681159" d="M366.019 752.259C358.052 755.171 352.334 762.232 351.142 770.631L320.204 988.694C319.275 995.241 321.21 1001.87 325.514 1006.89L500.104 1210.57C503.898 1214.99 509.232 1217.82 515.027 1218.46L761.162 1245.8C768.951 1246.66 776.644 1243.5 781.575 1237.41L912.091 1076.24C917.023 1070.15 918.514 1061.97 916.049 1054.53L838.135 819.454C836.3 813.92 832.432 809.289 827.313 806.498L591.79 678.069C585.984 674.903 579.096 674.389 572.884 676.659L366.019 752.259Z" stroke="url(#paint46_linear_4_25)" stroke-opacity="0.43" stroke-width="4"/>
<path opacity="0.695652" d="M359.373 743.33C351.325 745.832 345.29 752.534 343.644 760.8L301.051 974.621C299.756 981.123 301.329 987.867 305.367 993.125L466.136 1202.44C469.711 1207.1 474.93 1210.21 480.723 1211.14L721.819 1249.94C729.528 1251.18 737.34 1248.42 742.565 1242.62L880.25 1089.7C885.475 1083.9 887.399 1075.84 885.36 1068.31L821.578 832.585C820.045 826.921 816.405 822.056 811.403 818.988L586.424 680.979C580.774 677.513 573.902 676.653 567.571 678.62L359.373 743.33Z" stroke="url(#paint47_linear_4_25)" stroke-opacity="0.43" stroke-width="4"/>
<path opacity="0.710145" d="M353.013 735.392C344.906 737.483 338.575 743.814 336.484 751.921L282.599 960.886C280.94 967.321 282.146 974.158 285.904 979.638L432.746 1193.72C436.088 1198.59 441.176 1201.99 446.955 1203.21L682.496 1253.02C690.107 1254.63 698.016 1252.28 703.517 1246.78L847.87 1102.42C853.371 1096.92 855.719 1089.01 854.11 1081.4L804.307 845.863C803.085 840.084 799.685 834.995 794.814 831.654L580.73 684.812C575.251 681.053 568.413 679.848 561.978 681.507L353.013 735.392Z" stroke="url(#paint48_linear_4_25)" stroke-opacity="0.43" stroke-width="4"/>
<path opacity="0.724638" d="M346.875 728.45C338.731 730.13 332.127 736.075 329.605 743.999L264.82 947.521C262.8 953.869 263.63 960.781 267.097 966.469L399.964 1184.44C403.059 1189.52 408.002 1193.2 413.753 1194.71L643.254 1255.05C650.75 1257.02 658.734 1255.09 664.493 1249.9L815 1114.38C820.76 1109.2 823.52 1101.46 822.344 1093.8L786.32 859.249C785.417 853.371 782.272 848.071 777.545 844.461L574.659 689.539C569.365 685.496 562.577 683.948 556.053 685.294L346.875 728.45Z" stroke="url(#paint49_linear_4_25)" stroke-opacity="0.43" stroke-width="4"/>
<path opacity="0.73913" d="M340.897 722.504C332.738 723.776 325.887 729.323 322.947 737.04L247.684 934.559C245.306 940.799 245.758 947.765 248.922 953.646L367.813 1174.63C370.651 1179.9 375.434 1183.86 381.145 1185.67L604.156 1256.06C611.517 1258.39 619.554 1256.86 625.553 1252L781.691 1125.56C787.691 1120.71 790.853 1113.16 790.111 1105.48L767.62 872.705C767.044 866.744 764.165 861.242 759.597 857.37L568.16 695.131C563.066 690.814 556.346 688.924 549.748 689.952L340.897 722.504Z" stroke="url(#paint50_linear_4_25)" stroke-opacity="0.43" stroke-width="4"/>
<path opacity="0.753623" d="M335.021 717.549C326.868 718.415 319.793 723.556 316.45 731.042L231.16 922.028C228.431 928.141 228.5 935.14 231.349 941.197L336.322 1164.34C338.89 1169.8 343.498 1174.03 349.154 1176.12L565.259 1256.06C572.47 1258.73 580.538 1257.62 586.758 1253.1L747.994 1135.95C754.215 1131.43 757.766 1124.1 757.457 1116.42L748.208 886.19C747.966 880.163 745.367 874.473 740.97 870.345L561.188 701.555C556.308 696.973 549.673 694.745 543.016 695.452L335.021 717.549Z" stroke="url(#paint51_linear_4_25)" stroke-opacity="0.43" stroke-width="4"/>
<path opacity="0.768116" d="M329.185 713.58C321.06 714.045 313.786 718.769 310.057 726.002L215.218 909.955C212.142 915.921 211.826 922.932 214.351 929.15L305.51 1153.6C307.796 1159.23 312.216 1163.73 317.805 1166.11L526.623 1255.07C533.667 1258.08 541.743 1257.37 548.165 1253.2L713.961 1145.54C720.383 1141.36 724.308 1134.27 724.431 1126.62L728.092 899.666C728.19 893.592 725.881 887.726 721.669 883.348L553.697 708.776C549.043 703.94 542.51 701.377 535.809 701.761L329.185 713.58Z" stroke="url(#paint52_linear_4_25)" stroke-opacity="0.43" stroke-width="4"/>
<path opacity="0.782609" d="M323.332 710.584C315.255 710.653 307.806 714.953 303.708 721.914L199.821 898.367C196.407 904.165 195.704 911.167 197.896 917.528L275.398 1142.47C277.392 1148.26 281.61 1153.01 287.118 1155.68L488.301 1253.13C495.163 1256.45 503.226 1256.16 509.829 1252.35L679.642 1154.31C686.245 1150.5 690.529 1143.66 691.082 1136.05L707.277 913.098C707.72 906.994 705.714 900.965 701.699 896.345L545.646 716.755C541.232 711.676 534.817 708.784 528.089 708.841L323.332 710.584Z" stroke="url(#paint53_linear_4_25)" stroke-opacity="0.43" stroke-width="4"/>
<path opacity="0.797101" d="M317.404 708.548C309.395 708.227 301.797 712.098 297.349 718.766L184.939 887.284C181.195 892.895 180.104 899.867 181.954 906.354L246.004 1130.98C247.695 1136.91 251.697 1141.91 257.11 1144.86L450.351 1250.26C457.014 1253.89 465.042 1254 471.805 1250.56L645.089 1162.26C651.852 1158.82 656.479 1152.26 657.456 1144.73L685.774 926.446C686.568 920.331 684.873 914.154 681.069 909.3L536.994 725.452C532.833 720.143 526.551 716.928 519.811 716.658L317.404 708.548Z" stroke="url(#paint54_linear_4_25)" stroke-opacity="0.43" stroke-width="4"/>
<path opacity="0.811594" d="M311.343 707.454C303.423 706.751 295.702 710.189 290.924 716.545L170.534 876.729C166.47 882.135 164.992 889.055 166.492 895.65L217.342 1119.17C218.72 1125.23 222.492 1130.47 227.798 1133.71L412.82 1246.48C419.272 1250.42 427.243 1250.93 434.146 1247.86L610.351 1169.41C617.254 1166.33 622.206 1160.06 623.601 1152.64L663.593 939.677C664.74 933.57 663.367 927.258 659.787 922.179L527.705 734.827C523.808 729.3 517.676 725.768 510.94 725.17L311.343 707.454Z" stroke="url(#paint55_linear_4_25)" stroke-opacity="0.43" stroke-width="4"/>
<path opacity="0.826087" d="M305.098 707.281C297.285 706.205 289.464 709.207 284.378 715.235L156.57 866.719C152.198 871.901 150.335 878.749 151.479 885.432L189.424 1107.09C190.48 1113.26 194.01 1118.74 199.195 1122.25L375.759 1241.85C381.985 1246.07 389.88 1246.98 396.9 1244.28L575.48 1175.73C582.501 1173.04 587.76 1167.08 589.565 1159.78L640.749 952.754C642.252 946.674 641.21 940.244 637.865 934.949L517.745 744.835C514.124 739.103 508.157 735.261 501.441 734.335L305.098 707.281Z" stroke="url(#paint56_linear_4_25)" stroke-opacity="0.43" stroke-width="4"/>
<path opacity="0.84058" d="M298.613 708.008C290.926 706.567 283.034 709.131 277.662 714.815L143.013 857.27C138.343 862.21 136.098 868.964 136.881 875.716L162.259 1094.78C162.986 1101.05 166.259 1106.75 171.312 1110.54L339.214 1236.4C345.202 1240.89 353 1242.18 360.117 1239.87L540.524 1181.25C547.642 1178.94 553.189 1173.31 555.395 1166.16L617.253 965.644C619.114 959.611 618.414 953.077 615.315 947.576L507.083 755.43C503.747 749.507 497.961 745.363 491.28 744.111L298.613 708.008Z" stroke="url(#paint57_linear_4_25)" stroke-opacity="0.43" stroke-width="4"/>
<path opacity="0.855072" d="M291.84 709.604C284.297 707.81 276.357 709.937 270.721 715.262L129.824 848.397C124.87 853.078 122.247 859.715 122.663 866.518L135.855 1082.29C136.243 1088.65 139.249 1094.56 144.155 1098.61L303.229 1230.16C308.967 1234.91 316.647 1236.58 323.839 1234.65L505.533 1185.97C512.725 1184.04 518.539 1178.75 521.136 1171.77L593.125 978.313C595.346 972.346 594.994 965.726 592.153 960.028L495.69 766.566C492.648 760.466 487.058 756.03 480.427 754.453L291.84 709.604Z" stroke="url(#paint58_linear_4_25)" stroke-opacity="0.43" stroke-width="4"/>
<path opacity="0.869565" d="M284.728 712.043C277.346 709.907 269.386 711.599 263.511 716.553L116.967 840.11C111.743 844.515 108.747 851.016 108.793 857.849L110.216 1069.67C110.259 1076.09 112.984 1082.2 117.732 1086.52L267.844 1223.18C273.322 1228.17 280.865 1230.21 288.11 1228.67L470.554 1189.89C477.799 1188.35 483.859 1183.42 486.835 1176.64L568.383 990.73C570.962 984.85 570.966 978.159 568.394 972.277L483.54 778.194C480.803 771.933 475.422 767.213 468.858 765.314L284.728 712.043Z" stroke="url(#paint59_linear_4_25)" stroke-opacity="0.43" stroke-width="4"/>
<path opacity="0.884058" d="M277.234 715.29C270.03 712.825 262.072 714.086 255.981 718.656L104.405 832.419C98.925 836.532 95.5632 842.874 95.2364 849.718L85.3455 1056.94C85.0367 1063.41 87.4689 1069.71 92.0456 1074.3L233.099 1215.51C238.305 1220.72 245.694 1223.13 252.97 1221.98L435.632 1193.04C442.909 1191.89 449.193 1187.32 452.534 1180.76L543.045 1002.86C545.982 997.092 546.348 990.349 544.055 984.292L470.612 790.264C468.186 783.856 463.029 778.864 456.547 776.645L277.234 715.29Z" stroke="url(#paint60_linear_4_25)" stroke-opacity="0.43" stroke-width="4"/>
<path opacity="0.898551" d="M269.312 719.313C262.3 716.531 254.371 717.365 248.091 721.543L92.0987 825.331C86.3792 829.137 82.6595 835.3 81.9587 842.134L61.2406 1044.17C60.574 1050.67 62.7036 1057.15 67.0976 1061.99L199.028 1207.19C203.954 1212.62 211.169 1215.37 218.454 1214.6L400.813 1195.43C408.099 1194.67 414.584 1190.48 418.275 1184.15L517.132 1014.69C520.425 1009.04 521.161 1002.27 519.158 996.046L456.886 802.727C454.779 796.188 449.86 790.933 443.474 788.4L269.312 719.313Z" stroke="url(#paint61_linear_4_25)" stroke-opacity="0.43" stroke-width="4"/>
<path opacity="0.913043" d="M260.922 724.072C254.118 720.988 246.239 721.401 239.795 725.179L80.0115 818.85C74.0693 822.334 70.0013 828.298 68.9259 835.101L37.899 1031.4C36.8697 1037.91 38.6847 1044.55 42.8838 1049.64L165.66 1198.27C170.299 1203.89 177.324 1206.98 184.597 1206.6L366.139 1197.08C373.413 1196.7 380.076 1192.9 384.103 1186.83L490.67 1026.17C494.314 1020.68 495.425 1013.88 493.721 1007.51L442.345 815.531C440.564 808.877 435.895 803.372 429.622 800.528L260.922 724.072Z" stroke="url(#paint62_linear_4_25)" stroke-opacity="0.43" stroke-width="4"/>
<path opacity="0.927536" d="M252.025 729.531C245.442 726.159 237.639 726.159 231.056 729.531L68.1081 812.98C61.9608 816.128 57.5526 821.872 56.1032 828.624L15.3152 1018.66C13.9185 1025.17 15.41 1031.96 19.403 1037.29L133.027 1188.81C137.371 1194.6 144.189 1198.01 151.428 1198.01L331.653 1198.01C338.893 1198.01 345.711 1194.6 350.054 1188.81L463.678 1037.29C467.672 1031.96 469.163 1025.17 467.766 1018.66L426.978 828.624C425.529 821.872 421.121 816.128 414.973 812.98L252.025 729.531Z" stroke="url(#paint63_linear_4_25)" stroke-opacity="0.43" stroke-width="4"/>
<path opacity="0.942029" d="M242.585 735.646C236.237 732.003 228.533 731.599 221.838 734.559L56.3489 807.718C50.0152 810.519 45.2806 816.024 43.459 822.705L-6.51826 1006.01C-8.28576 1012.49 -7.12918 1019.42 -3.35361 1024.98L101.153 1178.84C105.196 1184.79 111.79 1188.51 118.975 1188.89L297.394 1198.24C304.579 1198.61 311.526 1195.61 316.169 1190.11L436.186 1048.02C440.522 1042.88 442.397 1036.11 441.316 1029.48L410.773 841.955C409.66 835.12 405.527 829.15 399.521 825.703L242.585 735.646Z" stroke="url(#paint64_linear_4_25)" stroke-opacity="0.43" stroke-width="4"/>
<path opacity="0.956522" d="M232.571 742.376C226.468 738.477 218.885 737.68 212.105 740.225L44.6996 803.065C38.199 805.506 33.1482 810.752 30.9573 817.341L-27.6118 993.478C-29.7529 999.917 -28.9412 1006.97 -25.3942 1012.76L70.0595 1168.43C73.7961 1174.52 80.1538 1178.53 87.2627 1179.28L263.4 1197.79C270.509 1198.54 277.561 1195.94 282.483 1190.76L408.217 1058.33C412.89 1053.41 415.151 1046.68 414.395 1039.93L393.727 855.47C392.953 848.569 389.104 842.387 383.253 838.649L232.571 742.376Z" stroke="url(#paint65_linear_4_25)" stroke-opacity="0.43" stroke-width="4"/>
<path opacity="0.971014" d="M221.952 749.677C216.105 745.538 208.665 744.359 201.826 746.488L33.1245 799.016C26.477 801.086 21.1247 806.055 18.5683 812.531L-47.9784 981.112C-50.495 987.488 -50.0373 994.654 -46.7294 1000.66L39.7653 1157.63C43.1919 1163.85 49.2982 1168.13 56.3109 1169.24L229.706 1196.71C236.719 1197.82 243.851 1195.63 249.032 1190.77L379.8 1068.21C384.801 1063.53 387.45 1056.85 387.027 1050.01L375.832 869.116C375.402 862.167 371.847 855.787 366.165 851.764L221.952 749.677Z" stroke="url(#paint66_linear_4_25)" stroke-opacity="0.43" stroke-width="4"/>
<path opacity="0.985507" d="M210.702 757.501C205.122 753.14 197.844 751.593 190.973 753.307L21.587 795.564C14.8139 797.254 9.17423 801.929 6.25763 808.271L-67.6338 968.952C-70.5272 975.244 -70.431 982.505 -67.3725 988.719L10.2845 1146.49C13.3983 1152.81 19.2419 1157.36 26.1385 1158.83L196.346 1195.01C203.242 1196.47 210.431 1194.69 215.848 1190.18L350.961 1077.64C356.283 1073.21 359.324 1066.61 359.24 1059.69L357.092 882.843C357.007 875.863 353.756 869.298 348.256 865L210.702 757.501Z" stroke="url(#paint67_linear_4_25)" stroke-opacity="0.43" stroke-width="4"/>
<path d="M198.798 765.803C193.492 761.237 186.396 759.336 179.519 760.637L10.0549 792.701C3.17747 794.002 -2.73352 798.365 -6.00416 804.553L-86.5939 957.037C-89.8645 963.225 -90.1389 970.566 -87.3399 976.982L-18.371 1135.06C-15.572 1141.48 -10.0034 1146.27 -3.24245 1148.08L163.351 1192.72C170.112 1194.53 177.331 1193.17 182.962 1189.01L321.732 1086.59C327.363 1082.44 330.796 1075.94 331.058 1068.95L337.507 896.597C337.769 889.602 334.831 882.869 329.525 878.303L198.798 765.803Z" stroke="url(#paint68_linear_4_25)" stroke-opacity="0.43" stroke-width="4"/>
<defs>
<linearGradient id="paint0_linear_4_25" x1="1705.91" y1="1510.24" x2="1522.03" y2="349.222" gradientUnits="userSpaceOnUse">
<stop stop-color="#FF1CF7"/>
<stop offset="1" stop-color="#00F0FF"/>
</linearGradient>
<linearGradient id="paint1_linear_4_25" x1="1654.15" y1="1509.5" x2="1532.36" y2="350.766" gradientUnits="userSpaceOnUse">
<stop stop-color="#FF1CF7"/>
<stop offset="1" stop-color="#00F0FF"/>
</linearGradient>
<linearGradient id="paint2_linear_4_25" x1="1602.74" y1="1507.17" x2="1542.31" y2="354.015" gradientUnits="userSpaceOnUse">
<stop stop-color="#FF1CF7"/>
<stop offset="1" stop-color="#00F0FF"/>
</linearGradient>
<linearGradient id="paint3_linear_4_25" x1="1551.78" y1="1503.29" x2="1551.78" y2="358.93" gradientUnits="userSpaceOnUse">
<stop stop-color="#FF1CF7"/>
<stop offset="1" stop-color="#00F0FF"/>
</linearGradient>
<linearGradient id="paint4_linear_4_25" x1="1501.34" y1="1497.9" x2="1560.69" y2="365.471" gradientUnits="userSpaceOnUse">
<stop stop-color="#FF1CF7"/>
<stop offset="1" stop-color="#00F0FF"/>
</linearGradient>
<linearGradient id="paint5_linear_4_25" x1="1451.51" y1="1491.05" x2="1568.95" y2="373.59" gradientUnits="userSpaceOnUse">
<stop stop-color="#FF1CF7"/>
<stop offset="1" stop-color="#00F0FF"/>
</linearGradient>
<linearGradient id="paint6_linear_4_25" x1="1402.34" y1="1482.77" x2="1576.49" y2="383.237" gradientUnits="userSpaceOnUse">
<stop stop-color="#FF1CF7"/>
<stop offset="1" stop-color="#00F0FF"/>
</linearGradient>
<linearGradient id="paint7_linear_4_25" x1="1353.93" y1="1473.12" x2="1583.23" y2="394.358" gradientUnits="userSpaceOnUse">
<stop stop-color="#FF1CF7"/>
<stop offset="1" stop-color="#00F0FF"/>
</linearGradient>
<linearGradient id="paint8_linear_4_25" x1="1306.33" y1="1462.15" x2="1589.08" y2="406.893" gradientUnits="userSpaceOnUse">
<stop stop-color="#FF1CF7"/>
<stop offset="1" stop-color="#00F0FF"/>
</linearGradient>
<linearGradient id="paint9_linear_4_25" x1="1259.61" y1="1449.93" x2="1594" y2="420.781" gradientUnits="userSpaceOnUse">
<stop stop-color="#FF1CF7"/>
<stop offset="1" stop-color="#00F0FF"/>
</linearGradient>
<linearGradient id="paint10_linear_4_25" x1="1213.82" y1="1436.51" x2="1597.9" y2="435.957" gradientUnits="userSpaceOnUse">
<stop stop-color="#FF1CF7"/>
<stop offset="1" stop-color="#00F0FF"/>
</linearGradient>
<linearGradient id="paint11_linear_4_25" x1="1169.04" y1="1421.95" x2="1600.73" y2="452.351" gradientUnits="userSpaceOnUse">
<stop stop-color="#FF1CF7"/>
<stop offset="1" stop-color="#00F0FF"/>
</linearGradient>
<linearGradient id="paint12_linear_4_25" x1="1125.3" y1="1406.33" x2="1602.44" y2="469.894" gradientUnits="userSpaceOnUse">
<stop stop-color="#FF1CF7"/>
<stop offset="1" stop-color="#00F0FF"/>
</linearGradient>
<linearGradient id="paint13_linear_4_25" x1="1082.66" y1="1389.71" x2="1602.96" y2="488.511" gradientUnits="userSpaceOnUse">
<stop stop-color="#FF1CF7"/>
<stop offset="1" stop-color="#00F0FF"/>
</linearGradient>
<linearGradient id="paint14_linear_4_25" x1="1041.16" y1="1372.16" x2="1602.27" y2="508.127" gradientUnits="userSpaceOnUse">
<stop stop-color="#FF1CF7"/>
<stop offset="1" stop-color="#00F0FF"/>
</linearGradient>
<linearGradient id="paint15_linear_4_25" x1="1000.84" y1="1353.75" x2="1600.3" y2="528.663" gradientUnits="userSpaceOnUse">
<stop stop-color="#FF1CF7"/>
<stop offset="1" stop-color="#00F0FF"/>
</linearGradient>
<linearGradient id="paint16_linear_4_25" x1="961.732" y1="1334.56" x2="1597.02" y2="550.04" gradientUnits="userSpaceOnUse">
<stop stop-color="#FF1CF7"/>
<stop offset="1" stop-color="#00F0FF"/>
</linearGradient>
<linearGradient id="paint17_linear_4_25" x1="923.873" y1="1314.66" x2="1592.41" y2="572.177" gradientUnits="userSpaceOnUse">
<stop stop-color="#FF1CF7"/>
<stop offset="1" stop-color="#00F0FF"/>
</linearGradient>
<linearGradient id="paint18_linear_4_25" x1="887.285" y1="1294.13" x2="1586.43" y2="594.992" gradientUnits="userSpaceOnUse">
<stop stop-color="#FF1CF7"/>
<stop offset="1" stop-color="#00F0FF"/>
</linearGradient>
<linearGradient id="paint19_linear_4_25" x1="851.991" y1="1273.05" x2="1579.06" y2="618.401" gradientUnits="userSpaceOnUse">
<stop stop-color="#FF1CF7"/>
<stop offset="1" stop-color="#00F0FF"/>
</linearGradient>
<linearGradient id="paint20_linear_4_25" x1="818.009" y1="1251.5" x2="1570.28" y2="642.323" gradientUnits="userSpaceOnUse">
<stop stop-color="#FF1CF7"/>
<stop offset="1" stop-color="#00F0FF"/>
</linearGradient>
<linearGradient id="paint21_linear_4_25" x1="785.348" y1="1229.54" x2="1560.07" y2="666.672" gradientUnits="userSpaceOnUse">
<stop stop-color="#FF1CF7"/>
<stop offset="1" stop-color="#00F0FF"/>
</linearGradient>
<linearGradient id="paint22_linear_4_25" x1="754.019" y1="1207.27" x2="1548.44" y2="691.365" gradientUnits="userSpaceOnUse">
<stop stop-color="#FF1CF7"/>
<stop offset="1" stop-color="#00F0FF"/>
</linearGradient>
<linearGradient id="paint23_linear_4_25" x1="724.025" y1="1184.75" x2="1535.37" y2="716.319" gradientUnits="userSpaceOnUse">
<stop stop-color="#FF1CF7"/>
<stop offset="1" stop-color="#00F0FF"/>
</linearGradient>
<linearGradient id="paint24_linear_4_25" x1="695.363" y1="1162.07" x2="1520.87" y2="741.451" gradientUnits="userSpaceOnUse">
<stop stop-color="#FF1CF7"/>
<stop offset="1" stop-color="#00F0FF"/>
</linearGradient>
<linearGradient id="paint25_linear_4_25" x1="668.03" y1="1139.29" x2="1504.94" y2="766.679" gradientUnits="userSpaceOnUse">
<stop stop-color="#FF1CF7"/>
<stop offset="1" stop-color="#00F0FF"/>
</linearGradient>
<linearGradient id="paint26_linear_4_25" x1="642.015" y1="1116.51" x2="1487.59" y2="791.922" gradientUnits="userSpaceOnUse">
<stop stop-color="#FF1CF7"/>
<stop offset="1" stop-color="#00F0FF"/>
</linearGradient>
<linearGradient id="paint27_linear_4_25" x1="617.305" y1="1093.78" x2="1468.84" y2="817.1" gradientUnits="userSpaceOnUse">
<stop stop-color="#FF1CF7"/>
<stop offset="1" stop-color="#00F0FF"/>
</linearGradient>
<linearGradient id="paint28_linear_4_25" x1="593.881" y1="1071.19" x2="1448.71" y2="842.137" gradientUnits="userSpaceOnUse">
<stop stop-color="#FF1CF7"/>
<stop offset="1" stop-color="#00F0FF"/>
</linearGradient>
<linearGradient id="paint29_linear_4_25" x1="571.722" y1="1048.8" x2="1427.22" y2="866.955" gradientUnits="userSpaceOnUse">
<stop stop-color="#FF1CF7"/>
<stop offset="1" stop-color="#00F0FF"/>
</linearGradient>
<linearGradient id="paint30_linear_4_25" x1="550.801" y1="1026.68" x2="1404.4" y2="891.481" gradientUnits="userSpaceOnUse">
<stop stop-color="#FF1CF7"/>
<stop offset="1" stop-color="#00F0FF"/>
</linearGradient>
<linearGradient id="paint31_linear_4_25" x1="531.09" y1="1004.9" x2="1380.28" y2="915.643" gradientUnits="userSpaceOnUse">
<stop stop-color="#FF1CF7"/>
<stop offset="1" stop-color="#00F0FF"/>
</linearGradient>
<linearGradient id="paint32_linear_4_25" x1="512.556" y1="983.518" x2="1354.89" y2="939.373" gradientUnits="userSpaceOnUse">
<stop stop-color="#FF1CF7"/>
<stop offset="1" stop-color="#00F0FF"/>
</linearGradient>
<linearGradient id="paint33_linear_4_25" x1="495.161" y1="962.604" x2="1328.27" y2="962.604" gradientUnits="userSpaceOnUse">
<stop stop-color="#FF1CF7"/>
<stop offset="1" stop-color="#00F0FF"/>
</linearGradient>
<linearGradient id="paint34_linear_4_25" x1="478.867" y1="942.213" x2="1300.48" y2="985.271" gradientUnits="userSpaceOnUse">
<stop stop-color="#FF1CF7"/>
<stop offset="1" stop-color="#00F0FF"/>
</linearGradient>
<linearGradient id="paint35_linear_4_25" x1="463.631" y1="922.401" x2="1271.54" y2="1007.32" gradientUnits="userSpaceOnUse">
<stop stop-color="#FF1CF7"/>
<stop offset="1" stop-color="#00F0FF"/>
</linearGradient>
<linearGradient id="paint36_linear_4_25" x1="449.408" y1="903.223" x2="1241.52" y2="1028.68" gradientUnits="userSpaceOnUse">
<stop stop-color="#FF1CF7"/>
<stop offset="1" stop-color="#00F0FF"/>
</linearGradient>
<linearGradient id="paint37_linear_4_25" x1="436.149" y1="884.727" x2="1210.46" y2="1049.31" gradientUnits="userSpaceOnUse">
<stop stop-color="#FF1CF7"/>
<stop offset="1" stop-color="#00F0FF"/>
</linearGradient>
<linearGradient id="paint38_linear_4_25" x1="423.804" y1="866.96" x2="1178.42" y2="1069.16" gradientUnits="userSpaceOnUse">
<stop stop-color="#FF1CF7"/>
<stop offset="1" stop-color="#00F0FF"/>
</linearGradient>
<linearGradient id="paint39_linear_4_25" x1="412.32" y1="849.966" x2="1145.45" y2="1088.18" gradientUnits="userSpaceOnUse">
<stop stop-color="#FF1CF7"/>
<stop offset="1" stop-color="#00F0FF"/>
</linearGradient>
<linearGradient id="paint40_linear_4_25" x1="401.643" y1="833.784" x2="1111.62" y2="1106.32" gradientUnits="userSpaceOnUse">
<stop stop-color="#FF1CF7"/>
<stop offset="1" stop-color="#00F0FF"/>
</linearGradient>
<linearGradient id="paint41_linear_4_25" x1="391.716" y1="818.451" x2="1076.98" y2="1123.55" gradientUnits="userSpaceOnUse">
<stop stop-color="#FF1CF7"/>
<stop offset="1" stop-color="#00F0FF"/>
</linearGradient>
<linearGradient id="paint42_linear_4_25" x1="382.481" y1="803.999" x2="1041.59" y2="1139.83" gradientUnits="userSpaceOnUse">
<stop stop-color="#FF1CF7"/>
<stop offset="1" stop-color="#00F0FF"/>
</linearGradient>
<linearGradient id="paint43_linear_4_25" x1="373.88" y1="790.457" x2="1005.53" y2="1155.14" gradientUnits="userSpaceOnUse">
<stop stop-color="#FF1CF7"/>
<stop offset="1" stop-color="#00F0FF"/>
</linearGradient>
<linearGradient id="paint44_linear_4_25" x1="365.851" y1="777.85" x2="968.845" y2="1169.44" gradientUnits="userSpaceOnUse">
<stop stop-color="#FF1CF7"/>
<stop offset="1" stop-color="#00F0FF"/>
</linearGradient>
<linearGradient id="paint45_linear_4_25" x1="358.334" y1="766.199" x2="931.613" y2="1182.71" gradientUnits="userSpaceOnUse">
<stop stop-color="#FF1CF7"/>
<stop offset="1" stop-color="#00F0FF"/>
</linearGradient>
<linearGradient id="paint46_linear_4_25" x1="351.266" y1="755.522" x2="893.899" y2="1194.94" gradientUnits="userSpaceOnUse">
<stop stop-color="#FF1CF7"/>
<stop offset="1" stop-color="#00F0FF"/>
</linearGradient>
<linearGradient id="paint47_linear_4_25" x1="344.586" y1="745.832" x2="855.767" y2="1206.1" gradientUnits="userSpaceOnUse">
<stop stop-color="#FF1CF7"/>
<stop offset="1" stop-color="#00F0FF"/>
</linearGradient>
<linearGradient id="paint48_linear_4_25" x1="338.231" y1="737.139" x2="817.287" y2="1216.19" gradientUnits="userSpaceOnUse">
<stop stop-color="#FF1CF7"/>
<stop offset="1" stop-color="#00F0FF"/>
</linearGradient>
<linearGradient id="paint49_linear_4_25" x1="332.138" y1="729.448" x2="778.524" y2="1225.21" gradientUnits="userSpaceOnUse">
<stop stop-color="#FF1CF7"/>
<stop offset="1" stop-color="#00F0FF"/>
</linearGradient>
<linearGradient id="paint50_linear_4_25" x1="326.246" y1="722.763" x2="739.545" y2="1233.14" gradientUnits="userSpaceOnUse">
<stop stop-color="#FF1CF7"/>
<stop offset="1" stop-color="#00F0FF"/>
</linearGradient>
<linearGradient id="paint51_linear_4_25" x1="320.494" y1="717.081" x2="700.416" y2="1240" gradientUnits="userSpaceOnUse">
<stop stop-color="#FF1CF7"/>
<stop offset="1" stop-color="#00F0FF"/>
</linearGradient>
<linearGradient id="paint52_linear_4_25" x1="314.82" y1="712.398" x2="661.203" y2="1245.78" gradientUnits="userSpaceOnUse">
<stop stop-color="#FF1CF7"/>
<stop offset="1" stop-color="#00F0FF"/>
</linearGradient>
<linearGradient id="paint53_linear_4_25" x1="309.164" y1="708.704" x2="621.97" y2="1250.5" gradientUnits="userSpaceOnUse">
<stop stop-color="#FF1CF7"/>
<stop offset="1" stop-color="#00F0FF"/>
</linearGradient>
<linearGradient id="paint54_linear_4_25" x1="303.469" y1="705.988" x2="582.781" y2="1254.17" gradientUnits="userSpaceOnUse">
<stop stop-color="#FF1CF7"/>
<stop offset="1" stop-color="#00F0FF"/>
</linearGradient>
<linearGradient id="paint55_linear_4_25" x1="297.676" y1="704.233" x2="543.696" y2="1256.8" gradientUnits="userSpaceOnUse">
<stop stop-color="#FF1CF7"/>
<stop offset="1" stop-color="#00F0FF"/>
</linearGradient>
<linearGradient id="paint56_linear_4_25" x1="291.73" y1="703.421" x2="504.775" y2="1258.42" gradientUnits="userSpaceOnUse">
<stop stop-color="#FF1CF7"/>
<stop offset="1" stop-color="#00F0FF"/>
</linearGradient>
<linearGradient id="paint57_linear_4_25" x1="285.577" y1="703.53" x2="466.077" y2="1259.05" gradientUnits="userSpaceOnUse">
<stop stop-color="#FF1CF7"/>
<stop offset="1" stop-color="#00F0FF"/>
</linearGradient>
<linearGradient id="paint58_linear_4_25" x1="279.164" y1="704.534" x2="427.658" y2="1258.72" gradientUnits="userSpaceOnUse">
<stop stop-color="#FF1CF7"/>
<stop offset="1" stop-color="#00F0FF"/>
</linearGradient>
<linearGradient id="paint59_linear_4_25" x1="272.442" y1="706.406" x2="389.572" y2="1257.46" gradientUnits="userSpaceOnUse">
<stop stop-color="#FF1CF7"/>
<stop offset="1" stop-color="#00F0FF"/>
</linearGradient>
<linearGradient id="paint60_linear_4_25" x1="265.363" y1="709.114" x2="351.869" y2="1255.29" gradientUnits="userSpaceOnUse">
<stop stop-color="#FF1CF7"/>
<stop offset="1" stop-color="#00F0FF"/>
</linearGradient>
<linearGradient id="paint61_linear_4_25" x1="257.881" y1="712.626" x2="314.6" y2="1252.27" gradientUnits="userSpaceOnUse">
<stop stop-color="#FF1CF7"/>
<stop offset="1" stop-color="#00F0FF"/>
</linearGradient>
<linearGradient id="paint62_linear_4_25" x1="249.954" y1="716.905" x2="277.809" y2="1248.41" gradientUnits="userSpaceOnUse">
<stop stop-color="#FF1CF7"/>
<stop offset="1" stop-color="#00F0FF"/>
</linearGradient>
<linearGradient id="paint63_linear_4_25" x1="241.541" y1="721.914" x2="241.541" y2="1243.78" gradientUnits="userSpaceOnUse">
<stop stop-color="#FF1CF7"/>
<stop offset="1" stop-color="#00F0FF"/>
</linearGradient>
<linearGradient id="paint64_linear_4_25" x1="232.604" y1="727.612" x2="205.835" y2="1238.4" gradientUnits="userSpaceOnUse">
<stop stop-color="#FF1CF7"/>
<stop offset="1" stop-color="#00F0FF"/>
</linearGradient>
<linearGradient id="paint65_linear_4_25" x1="223.11" y1="733.958" x2="170.729" y2="1232.33" gradientUnits="userSpaceOnUse">
<stop stop-color="#FF1CF7"/>
<stop offset="1" stop-color="#00F0FF"/>
</linearGradient>
<linearGradient id="paint66_linear_4_25" x1="213.025" y1="740.907" x2="136.257" y2="1225.6" gradientUnits="userSpaceOnUse">
<stop stop-color="#FF1CF7"/>
<stop offset="1" stop-color="#00F0FF"/>
</linearGradient>
<linearGradient id="paint67_linear_4_25" x1="202.323" y1="748.415" x2="102.45" y2="1218.28" gradientUnits="userSpaceOnUse">
<stop stop-color="#FF1CF7"/>
<stop offset="1" stop-color="#00F0FF"/>
</linearGradient>
<linearGradient id="paint68_linear_4_25" x1="190.976" y1="756.434" x2="69.3347" y2="1210.41" gradientUnits="userSpaceOnUse">
<stop stop-color="#FF1CF7"/>
<stop offset="1" stop-color="#00F0FF"/>
</linearGradient>
</defs>
</svg>
